<?xml version="1.0" encoding="UTF-8"?>
<svg id="Capa_2" data-name="Capa 2" xmlns="http://www.w3.org/2000/svg" viewBox="0 0 15.28 15.28">
  <defs>
    <style>
      .cls-1 {
        fill: #02382e;
      }
    </style>
  </defs>
  <g id="Capa_1-2" data-name="Capa 1">
    <g>
      <path class="cls-1" d="M11.68,2.73c-.49,0-.9,.4-.9,.9,0,.49,.4,.9,.9,.9s.9-.4,.9-.9-.4-.9-.9-.9Z"/>
      <path class="cls-1" d="M7.7,3.88c-2.07,0-3.76,1.69-3.76,3.76,0,2.07,1.69,3.76,3.76,3.76,2.07,0,3.76-1.69,3.76-3.76,0-2.07-1.69-3.76-3.76-3.76Zm0,6.17c-1.33,0-2.41-1.08-2.41-2.41s1.08-2.41,2.41-2.41c1.33,0,2.41,1.08,2.41,2.41s-1.08,2.41-2.41,2.41Z"/>
      <path class="cls-1" d="M10.69,15.28H4.59C2.06,15.28,0,13.22,0,10.69V4.59C0,2.06,2.06,0,4.59,0h6.1c2.53,0,4.59,2.06,4.59,4.59v6.1c0,2.53-2.06,4.59-4.59,4.59ZM4.59,1.44c-1.74,0-3.15,1.41-3.15,3.15v6.1c0,1.74,1.41,3.15,3.15,3.15h6.1c1.74,0,3.15-1.41,3.15-3.15V4.59c0-1.74-1.41-3.15-3.15-3.15H4.59Z"/>
    </g>
  </g>
</svg>