<?xml version="1.0" encoding="UTF-8"?>
<svg id="Capa_2" data-name="Capa 2" xmlns="http://www.w3.org/2000/svg" viewBox="0 0 18.56 15.28">
  <defs>
    <style>
      .cls-1 {
        fill: #02382e;
      }
    </style>
  </defs>
  <g id="Capa_1-2" data-name="Capa 1">
    <path class="cls-1" d="M18.48,1.83c-.59,.27-1.24,.43-1.88,.54,.3-.05,.74-.6,.92-.82,.27-.34,.5-.72,.62-1.14,.02-.03,.03-.07,0-.1-.04-.02-.07,0-.1,0-.71,.38-1.44,.66-2.23,.85-.06,.02-.11,0-.15-.04-.06-.07-.13-.14-.19-.2-.33-.28-.68-.5-1.08-.66C13.87,.06,13.3-.03,12.74,0c-.55,.04-1.08,.19-1.57,.44-.49,.25-.92,.61-1.27,1.03-.36,.44-.62,.96-.76,1.51-.13,.53-.12,1.06-.04,1.6,.01,.09,0,.1-.08,.09-3.06-.45-5.59-1.55-7.65-3.89-.09-.1-.14-.1-.21,0-.9,1.35-.46,3.52,.66,4.58,.15,.14,.3,.28,.47,.41-.06,.01-.81-.07-1.48-.41-.09-.06-.13-.02-.14,.08,0,.15,0,.28,.02,.44,.17,1.37,1.12,2.63,2.42,3.13,.15,.06,.32,.12,.49,.15-.3,.06-.6,.11-1.45,.04-.11-.02-.15,.03-.11,.13,.64,1.74,2.01,2.25,3.04,2.55,.14,.02,.28,.02,.41,.06,0,.01-.02,.01-.02,.02-.34,.52-1.52,.91-2.08,1.1-1,.35-2.09,.51-3.15,.4-.17-.03-.21-.02-.25,0-.05,.03,0,.07,.05,.11,.22,.14,.43,.27,.66,.39,.67,.36,1.37,.64,2.11,.84,3.79,1.05,8.06,.28,10.9-2.55,2.23-2.22,3.02-5.28,3.02-8.34,0-.12,.14-.19,.23-.25,.58-.44,1.05-.96,1.48-1.54,.1-.13,.1-.25,.1-.3v-.02s0-.03-.08,0Z"/>
  </g>
</svg>