<?xml version="1.0" encoding="UTF-8"?>
<svg id="Capa_2" data-name="Capa 2" xmlns="http://www.w3.org/2000/svg" viewBox="0 0 54.52 56.63">
  <defs>
    <style>
      .cls-1 {
        fill: #262626;
      }
    </style>
  </defs>
  <g id="Capa_1-2" data-name="Capa 1">
    <path class="cls-1" d="M27.26,56.63C12.23,56.63,0,44.4,0,29.37V8.19C0,4.37,2.49,1.18,6.2,.25c.68-.17,1.36-.25,2.05-.25,3.03,0,5.71,1.63,7.16,4.35,2.02,3.8,6.07,11.4,8.09,15.2,.75,1.41,2.16,2.26,3.76,2.26s3.01-.84,3.76-2.26c2.02-3.8,6.07-11.4,8.09-15.2,1.45-2.72,4.13-4.35,7.16-4.35,.68,0,1.37,.09,2.04,.25,3.71,.93,6.2,4.12,6.2,7.94V29.37c0,15.03-12.23,27.26-27.26,27.26ZM10.49,14.88c-.31-.59-1.21-.36-1.21,.3v14.19c0,9.74,7.92,17.81,17.66,17.97h.3c9.92,0,17.98-8.21,17.98-18.31V15.18c0-.67-.89-.9-1.21-.3-1.46,2.75-3.86,7.24-4.81,9.04-2.36,4.43-6.94,7.18-11.96,7.18-.29,0-.57,0-.86-.03-4.65-.29-8.95-3.12-11.22-7.39-.93-1.75-3.25-6.1-4.68-8.8Z"/>
  </g>
</svg>