<?xml version="1.0" encoding="UTF-8"?>
<svg id="Capa_2" data-name="Capa 2" xmlns="http://www.w3.org/2000/svg" viewBox="0 0 111.02 140.38">
  <defs>
    <style>
      .cls-1 {
        fill: #00f77b;
      }

      .cls-2 {
        fill: #02382e;
      }

      .cls-3 {
        fill: #c9fbe2;
      }

      .cls-4 {
        fill: none;
        stroke: #02382e;
        stroke-miterlimit: 10;
        stroke-width: 4px;
      }
    </style>
  </defs>
  <g id="Capa_1-2" data-name="Capa 1">
    <g>
      <polygon class="cls-3" points="80.71 64.93 76.38 66.84 57.64 24.41 61.34 10.36 65.92 11.56 62.64 24.01 80.71 64.93"/>
      <circle class="cls-3" cx="63.63" cy="10.96" r="10.96"/>
      <path class="cls-1" d="M72.33,43.35l-5.6,2.68c-.94,.45-1.36,1.56-.94,2.52l29.74,69.05c1.78,4.25,6.75,6.15,10.91,4.16h0c4.16-1.99,5.8-7.06,3.6-11.11L74.89,44.2c-.49-.92-1.61-1.29-2.55-.84Z"/>
      <circle class="cls-2" cx="63.63" cy="10.96" r="8.9"/>
      <polygon class="cls-3" points="46.27 32.94 32.58 25.01 32.91 24.33 52.98 29.91 46.27 32.94"/>
      <polygon class="cls-3" points="28.65 80.26 24.39 78.2 46.27 32.94 52.98 29.91 28.65 80.26"/>
      <rect class="cls-3" x="40.94" y="27.15" width="10.97" height="7.42" transform="translate(18.05 -17.13) rotate(25.79)"/>
      <path class="cls-4" d="M11.99,115.42c11.5,6.16,21.6-12.96,34.44-9.32,17.2,4.87,8.3,30.08,31.92,32.29"/>
      <path class="cls-1" d="M44.53,49.24l-5.59-2.7c-.94-.45-2.07-.09-2.56,.83L.99,113.71c-2.22,4.04-.59,9.12,3.56,11.12h0c4.15,2.01,9.14,.12,10.93-4.12L45.46,51.76c.42-.96,0-2.07-.94-2.52Z"/>
    </g>
  </g>
</svg>