<?xml version="1.0" encoding="UTF-8"?>
<svg id="Capa_2" data-name="Capa 2" xmlns="http://www.w3.org/2000/svg" viewBox="0 0 121.76 123.19">
  <defs>
    <style>
      .cls-1 {
        fill: #00f77b;
      }

      .cls-2 {
        fill: #02382e;
      }

      .cls-3 {
        fill: #c9fbe2;
      }
    </style>
  </defs>
  <g id="Capa_1-2" data-name="Capa 1">
    <g>
      <path class="cls-2" d="M35.7,107.23c-5.97,0-10.82-4.86-10.82-10.82V39.23c0-5.35,1.97-10.48,5.56-14.45l8.25-9.14-9.61,5.45c-4.13,2.34-7.25,6.13-8.75,10.64L.37,91.73c-1.27,3.83,.8,7.96,4.62,9.23l46.51,15.46c3.82,1.27,7.96-.8,9.23-4.62l1.52-4.57h-26.56Z"/>
      <polygon class="cls-1" points="113.9 87.79 103.09 98.61 103.09 64.84 85.36 64.84 85.36 98.61 74.54 87.79 66.68 95.65 86.36 115.33 94.22 123.19 102.08 115.33 121.76 95.65 113.9 87.79"/>
      <path class="cls-3" d="M74.54,82.52l7.09,7.09v-28.5h4.97v-21.88c0-4.29-1.59-8.44-4.47-11.62l-11.4-12.64c-.59-.65-1.22-1.23-1.88-1.77l-4.96,9.09c.6,1.03,.95,2.23,.95,3.51,0,3.86-3.13,6.99-6.99,6.99s-6.99-3.13-6.99-6.99c0-2.99,1.88-5.53,4.52-6.53l3.85-9.96c-5.17-.41-10.48,1.47-14.26,5.66l-11.4,12.64c-2.88,3.19-4.47,7.33-4.47,11.62v57.17c0,3.64,2.95,6.6,6.6,6.6h33.06l-7.35-7.35,13.13-13.13Z"/>
      <path class="cls-1" d="M67.28,1.53c-1.5-1.43-3.67-1.9-5.63-1.22l-3.09,1.08,1.58,.22c1.65,.23,2.96,1.51,3.23,3.16h0c.12,.75,.02,1.51-.3,2.2l-8.76,18.98,4.89,2.25,7.6-16.48,1.74-3.99c.93-2.13,.43-4.6-1.25-6.2h0Z"/>
      <path class="cls-2" d="M56.57,78.56c-3.76-.18-6.84-.98-9.12-2.51v-6.71c2.86,1.97,5.99,3,9.57,3.13v-5.73l-1.97-.36c-5.41-1.03-8.01-3.53-8.01-8.32,0-5.32,3.13-8.32,9.53-8.95v-3.8h4.29v3.76c3.09,.22,5.64,.89,7.38,2.01v6.49c-2.28-1.39-4.96-2.24-7.87-2.42v5.46l1.79,.36c5.32,1.03,7.92,3.58,7.92,8.37,0,5.23-3.13,8.28-9.22,9.04v3.89h-4.29v-3.71Zm.45-23.31c-1.79,.31-2.59,1.12-2.59,2.42,0,1.12,.63,1.74,2.59,2.28v-4.7Zm5.68,14.54c0-1.16-.58-1.79-2.33-2.28v4.74c1.61-.36,2.33-1.16,2.33-2.46Z"/>
    </g>
  </g>
</svg>