<?xml version="1.0" encoding="UTF-8"?>
<svg id="Capa_2" data-name="Capa 2" xmlns="http://www.w3.org/2000/svg" viewBox="0 0 123.89 119.95">
  <defs>
    <style>
      .cls-1 {
        fill: #00f77b;
      }

      .cls-2 {
        fill: #c9fbe2;
      }
    </style>
  </defs>
  <g id="Capa_1-2" data-name="Capa 1">
    <g>
      <g>
        <path class="cls-2" d="M31.96,46.39c.12,0,.24-.01,.36-.01,3.26,0,6.44,1.58,9.24,2.98,2.89,1.44,5.63,2.8,8.64,2.8s5.82-1.39,8.77-2.87c2.74-1.36,5.84-2.91,9.08-2.91,.25,0,.51,.01,.78,.03,8.31,.61,10.95,7.21,10.65,13.22-.12,1.84-2.35,11.83-6.24,28.06l6.23,6.23c4.89-20.2,7.42-31.59,7.53-33.92,.59-11.98-6.32-20.26-17.61-21.1-.42-.03-.86-.05-1.32-.05-5.02,0-9.05,2.01-12.62,3.78-3.4,1.69-4.33,1.99-5.25,1.99s-1.86-.31-5.32-2.03c-3.53-1.76-7.53-3.75-12.56-3.75-.45,0-.89,.02-1.32,.05-1.95,.14-3.77,.52-5.45,1.09l6.4,6.4Z"/>
        <path class="cls-2" d="M67.93,106.01c-.49,.31-1.06,.48-1.66,.48-.26,0-.52-.03-.79-.09-.77-.18-1.44-.65-1.86-1.32l-3.87-6.2c-2.07-3.32-5.64-5.3-9.56-5.3-3.91,0-7.48,1.98-9.55,5.3l-3.88,6.24c-.34,.55-.86,.98-1.46,1.21-.34,.13-.7,.2-1.07,.2-.64,0-1.14-.2-1.46-.36-.81-.38-1.4-1.11-1.61-1.98-9.29-37.83-10.2-43.63-10.26-44.55-.01-.22,0-.44,0-.65l-6.72-6.72c-.64,2.35-.92,4.95-.78,7.75,.15,2.82,3.67,18.29,10.47,45.97,1.04,4.21,4.34,7.26,8.63,7.94,.58,.09,1.17,.14,1.75,.14,3.63,0,6.97-1.87,8.92-5l3.87-6.19c.7-1.13,1.85-1.77,3.18-1.77s2.49,.66,3.18,1.76l3.87,6.2c1.95,3.13,5.29,5,8.91,5,.58,0,1.17-.05,1.76-.14,2.08-.33,3.92-1.22,5.39-2.53l-5.37-5.37Z"/>
      </g>
      <polygon class="cls-1" points="6.35 26.26 0 32.61 87.34 119.95 93.69 113.59 6.35 26.26 6.35 26.26"/>
      <polygon class="cls-1" points="104.11 17.11 100.19 36.74 91.39 30.77 87.41 42.77 93.06 44.64 94.56 40.11 104.27 46.69 109.94 18.28 104.11 17.11 104.11 17.11"/>
      <polygon class="cls-1" points="73.03 0 67.81 2.84 74.49 15.11 67.6 23.51 71.43 33.24 76.97 31.06 74.41 24.58 81.62 15.78 73.03 0 73.03 0"/>
      <polygon class="cls-1" points="111.43 53.98 95.23 58.24 96.74 63.99 108.44 60.92 114.05 71.23 123.89 71.22 123.88 65.27 117.58 65.27 111.43 53.98 111.43 53.98"/>
    </g>
  </g>
</svg>