<?xml version="1.0" encoding="UTF-8"?>
<svg id="Capa_2" data-name="Capa 2" xmlns="http://www.w3.org/2000/svg" viewBox="0 0 287.52 225.87">
  <defs>
    <style>
      .cls-1 {
        fill: #02382e;
      }
    </style>
  </defs>
  <g id="Capa_1-2" data-name="Capa 1">
    <g>
      <g>
        <path class="cls-1" d="M14.5,34.63l2.65-4.67c.45-.73,1.52-.62,1.92-.34,.22,.11,4.28,3.1,8,3.1,2.25,0,3.89-1.41,3.89-3.38,0-2.37-1.97-4.17-5.8-5.69-4.84-1.92-10.92-5.69-10.92-12.44C14.22,5.63,18.56,0,27.23,0c5.86,0,10.36,2.98,12.05,4.22,.68,.39,.56,1.41,.34,1.8l-2.87,4.34c-.39,.62-1.41,1.13-1.91,.73-.51-.28-4.62-3.38-8.05-3.38-2.03,0-3.55,1.35-3.55,2.87,0,2.08,1.69,3.66,6.14,5.46,4.39,1.75,11.38,5.18,11.38,12.84,0,5.8-5.01,11.66-13.29,11.66-7.32,0-11.38-3.04-12.67-4.34-.56-.56-.73-.79-.28-1.58Z"/>
        <path class="cls-1" d="M55.99,16.89c6.42,0,11.71,5.41,11.71,11.77s-5.29,11.88-11.71,11.88-11.71-5.41-11.71-11.88,5.29-11.77,11.71-11.77Zm0,16.39c2.48,0,4.45-2.08,4.45-4.62s-1.97-4.5-4.45-4.5-4.45,2.03-4.45,4.5,1.97,4.62,4.45,4.62Z"/>
        <path class="cls-1" d="M71.55,18.53c0-.62,.45-1.07,1.07-1.07h2.59c.39,0,.79,.28,.96,.62l.96,2.31c1.41-1.46,4-3.49,7.6-3.49,3.15,0,5.35,1.18,7.38,3.44,1.3-1.3,3.94-3.44,7.77-3.44,6.98,0,10.42,5.41,10.42,11.83v10.19c0,.56-.45,1.07-1.07,1.07h-5.97c-.62,0-1.07-.51-1.07-1.07v-10.53c0-2.25-1.18-4.22-3.77-4.22-1.97,0-3.77,1.63-3.77,3.83v10.92c0,.56-.45,1.07-1.07,1.07h-5.41c-.62,0-1.07-.51-1.07-1.07v-10.53c0-2.25-1.01-4.22-3.55-4.22-2.25,0-3.94,1.63-3.94,3.94v10.81c0,.56-.51,1.07-1.07,1.07h-5.91c-.62,0-1.07-.51-1.07-1.07V18.53Z"/>
        <path class="cls-1" d="M125.43,16.89c5.74,0,10.7,4.39,10.7,10.59,0,.39-.06,1.13-.11,1.52-.06,.56-.56,.96-1.07,.96h-13.51c.17,1.52,1.41,3.72,4.34,3.72,1.41,0,3.04-.68,3.94-1.35,.51-.39,1.07-.39,1.41,0l2.82,3.38c.34,.45,.45,1.13-.06,1.63-1.97,1.97-4.79,3.21-8.33,3.21-6.7,0-11.77-5.35-11.77-11.83s5.01-11.83,11.66-11.83Zm2.76,8.67c-.11-1.46-1.52-2.65-2.98-2.65s-2.82,1.18-3.04,2.65h6.02Z"/>
        <path class="cls-1" d="M140.74,24.61h-1.46c-.56,0-1.01-.51-1.01-1.07v-5.01c0-.62,.45-1.07,1.01-1.07h1.46v-6.25c0-.56,.51-1.07,1.07-1.07h6.03c.56,0,1.01,.51,1.01,1.07v6.25h4.17c.62,0,1.07,.45,1.07,1.07v5.01c0,.56-.45,1.07-1.07,1.07h-4.17v7.04c0,1.24,.85,1.35,1.52,1.35,.79,0,1.63-.28,2.2-.39s1.07,.11,1.24,.73l1.24,4.67c.11,.51-.17,1.13-.73,1.3,0,0-4,1.24-6.81,1.24-4.28,0-6.76-2.7-6.76-7.83v-8.11Z"/>
        <path class="cls-1" d="M158.85,1.63c0-.56,.51-1.07,1.07-1.07h6.25c.56,0,1.07,.51,1.07,1.07V18.19c1.69-.84,3.55-1.3,5.24-1.3,7.09,0,10.76,5.57,10.76,11.83v10.19c0,.56-.51,1.07-1.07,1.07h-5.97c-.62,0-1.07-.51-1.07-1.07v-10.31c0-2.48-1.63-4.45-4.11-4.45-1.8,0-3.77,1.01-3.77,4.45v10.31c0,.73-.28,1.07-1.24,1.07h-6.08c-.56,0-1.07-.51-1.07-1.07V1.63Z"/>
        <path class="cls-1" d="M187.79,6.19c0-2.48,1.97-4.5,4.45-4.5s4.5,2.03,4.5,4.5-2.03,4.45-4.5,4.45-4.45-1.97-4.45-4.45Zm.34,12.33c0-.62,.51-1.07,1.07-1.07h6.19c.56,0,1.07,.45,1.07,1.07v20.38c0,.56-.51,1.07-1.07,1.07h-6.19c-.56,0-1.07-.51-1.07-1.07V18.53Z"/>
        <path class="cls-1" d="M201.84,18.53c0-.62,.51-1.07,1.07-1.07h2.65c.34,0,.84,.28,1.01,.68l.9,2.25c1.24-1.35,3.83-3.49,7.94-3.49,6.98,0,10.7,5.35,10.7,11.77v10.25c0,.56-.51,1.07-1.07,1.07h-6.02c-.62,0-1.07-.51-1.07-1.07v-10.53c0-2.25-1.3-4.22-3.83-4.22-2.25,0-4.28,1.63-4.28,3.94v10.81c0,.51-.23,1.07-1.01,1.07h-5.91c-.56,0-1.07-.51-1.07-1.07V18.53Z"/>
        <path class="cls-1" d="M233.31,31.76s-1.63-1.69-1.63-5.12c0-5.24,4.45-9.74,9.91-9.74h10.64c.62,0,1.07,.45,1.07,1.07v2.31c0,.39-.28,.79-.62,.96l-3.27,1.18s2.14,1.75,2.14,5.46c0,4.11-3.77,8.5-9.74,8.5h-4.05c-1.18,0-1.86,.62-1.86,1.52,0,1.07,.96,1.52,1.8,1.52h6.76c5.29,0,9.69,3.21,9.69,8.22,0,5.41-3.77,9.8-12.67,9.8s-11.77-4.11-11.77-7.66,2.82-5.07,3.43-5.41v-.17c-.73-.23-4.34-1.8-4.34-6.25s4.5-6.19,4.5-6.19Zm8.16,19.09c2.82,0,4.05-1.13,4.05-2.65,0-1.18-1.01-2.37-4.05-2.37-2.03,0-4.05,.73-4.05,2.37s1.35,2.65,4.05,2.65Zm.34-20.78c1.75,0,2.98-1.24,2.98-2.93s-1.24-2.93-2.98-2.93-2.98,1.24-2.98,2.93,1.3,2.93,2.98,2.93Z"/>
        <path class="cls-1" d="M255.73,37.5l1.97-3.89c.17-.34,.73-.68,1.18-.45,0,0,2.65,1.46,5.07,1.46,.56,0,1.07-.34,1.07-1.01,0-.56-.34-1.35-3.21-2.37-4.39-1.52-6.31-4.05-6.31-7.55,0-3.77,2.7-6.81,8.78-6.81,3.55,0,6.25,.96,7.49,1.75,.51,.34,.9,.85,.56,1.41l-2.08,3.83c-.17,.34-.73,.51-1.18,.34,0,0-2.59-1.29-4.79-1.29-.73,0-1.24,.17-1.24,.79,0,.56,.62,1.13,2.53,1.8,4.56,1.58,7.71,3.38,7.71,7.88,0,3.94-3.15,7.15-9.52,7.15-3.72,0-6.53-.96-7.66-1.86-.39-.34-.68-.68-.39-1.18Z"/>
      </g>
      <g>
        <path class="cls-1" d="M126.42,60.39c1.85,0,3.17,.66,3.17,.66,0-1.6-.25-2.43-2.22-2.43-1.11,0-3.04,.29-4.11,.62-.62,.21-.91-.25-.99-.86l-.37-2.59c-.12-.7,.25-.99,.62-1.11,.37-.12,3.25-.62,5.47-.62,5.1,0,6.95,2.14,6.95,6.99v9.09c0,.41-.37,.78-.78,.78h-1.81c-.25,0-.53-.08-.74-.53l-.58-1.11c-.95,.86-2.39,2.06-4.98,2.06-3.25,0-5.68-2.18-5.68-5.43s2.3-5.51,6.05-5.51Zm1.07,6.91c.99,0,1.81-.82,1.81-1.81-.04-.95-.82-1.73-1.81-1.73s-1.77,.78-1.77,1.73,.78,1.81,1.77,1.81Z"/>
        <path class="cls-1" d="M138.74,55.25c0-.45,.37-.78,.78-.78h1.93c.45,0,.62,.25,.74,.49l.74,1.81c.82-1.19,2.35-2.72,4.48-2.72,2.26,0,3.87,.82,3.29,1.77l-2.02,3.29c-.16,.29-.45,.53-.91,.37-.21-.08-.62-.21-.99-.21-1.23,0-2.18,.95-2.18,2.35v8.52c0,.49-.25,.78-.91,.78h-4.2c-.41,0-.78-.37-.78-.78v-14.89Z"/>
        <path class="cls-1" d="M159.33,54.05c4.2,0,7.82,3.21,7.82,7.74,0,.29-.04,.82-.08,1.11-.04,.41-.41,.7-.78,.7h-9.88c.12,1.11,1.03,2.72,3.17,2.72,1.03,0,2.22-.49,2.88-.99,.37-.29,.78-.29,1.03,0l2.06,2.47c.25,.33,.33,.82-.04,1.19-1.44,1.44-3.5,2.35-6.09,2.35-4.9,0-8.6-3.91-8.6-8.64s3.66-8.64,8.52-8.64Zm2.02,6.34c-.08-1.07-1.11-1.93-2.18-1.93s-2.06,.86-2.22,1.93h4.4Z"/>
      </g>
      <g>
        <path class="cls-1" d="M67.78,80.27c0-.43,.38-.81,.81-.81h5.26c.47,0,.81,.38,.81,.81v17.31c0,2.99,2.22,5.38,5.26,5.38s5.34-2.39,5.34-5.38v-17.31c0-.43,.34-.81,.81-.81h5.26c.43,0,.81,.38,.81,.81v17.65c0,6.5-5.47,11.88-12.22,11.88s-12.14-5.38-12.14-11.88v-17.65Z"/>
        <path class="cls-1" d="M96.92,93.09c0-.47,.38-.81,.81-.81h2.01c.26,0,.64,.21,.77,.51l.68,1.71c.94-1.03,2.91-2.65,6.03-2.65,5.3,0,8.12,4.06,8.12,8.93v7.78c0,.43-.38,.81-.81,.81h-4.57c-.47,0-.81-.38-.81-.81v-7.99c0-1.71-.98-3.2-2.91-3.2-1.71,0-3.25,1.24-3.25,2.99v8.2c0,.38-.17,.81-.77,.81h-4.49c-.43,0-.81-.38-.81-.81v-15.47Z"/>
        <path class="cls-1" d="M118.8,83.73c0-1.88,1.5-3.42,3.38-3.42s3.42,1.54,3.42,3.42-1.54,3.38-3.42,3.38-3.38-1.5-3.38-3.38Zm.26,9.36c0-.47,.39-.81,.81-.81h4.7c.43,0,.81,.34,.81,.81v15.47c0,.43-.38,.81-.81,.81h-4.7c-.43,0-.81-.38-.81-.81v-15.47Z"/>
        <path class="cls-1" d="M127.43,93.43c-.3-.56,.09-1.15,.73-1.15h4.79c.3,0,.64,.21,.77,.47l2.52,5.81h.13l2.69-5.81c.26-.51,.55-.47,1.15-.47h4.32c.64,0,1.03,.6,.73,1.15l-8.12,15.94c-.13,.21-.47,.43-.73,.43h-.21c-.26,0-.6-.21-.73-.43l-8.03-15.94Z"/>
        <path class="cls-1" d="M154.32,91.85c4.36,0,8.12,3.33,8.12,8.03,0,.3-.04,.85-.09,1.15-.04,.43-.43,.73-.81,.73h-10.26c.13,1.15,1.07,2.82,3.29,2.82,1.07,0,2.31-.51,2.99-1.03,.38-.3,.81-.3,1.07,0l2.14,2.56c.26,.34,.34,.85-.04,1.24-1.5,1.5-3.63,2.44-6.32,2.44-5.09,0-8.93-4.06-8.93-8.97s3.8-8.97,8.85-8.97Zm2.09,6.58c-.09-1.11-1.15-2.01-2.26-2.01s-2.14,.9-2.31,2.01h4.57Z"/>
        <path class="cls-1" d="M165.31,93.09c0-.47,.39-.81,.81-.81h2.01c.47,0,.64,.26,.77,.51l.77,1.88c.85-1.24,2.44-2.82,4.66-2.82,2.35,0,4.02,.85,3.42,1.84l-2.09,3.42c-.17,.3-.47,.56-.94,.38-.21-.09-.64-.21-1.03-.21-1.28,0-2.26,.98-2.26,2.44v8.85c0,.51-.26,.81-.94,.81h-4.36c-.43,0-.81-.38-.81-.81v-15.47Z"/>
        <path class="cls-1" d="M179.01,107.49l1.5-2.95c.13-.26,.56-.51,.9-.34,0,0,2.01,1.11,3.85,1.11,.43,0,.81-.26,.81-.77,0-.43-.26-1.03-2.44-1.79-3.33-1.15-4.79-3.08-4.79-5.73,0-2.86,2.05-5.17,6.67-5.17,2.69,0,4.74,.73,5.68,1.32,.38,.26,.68,.64,.43,1.07l-1.58,2.91c-.13,.26-.56,.39-.9,.26,0,0-1.97-.98-3.63-.98-.56,0-.94,.13-.94,.6,0,.43,.47,.85,1.92,1.37,3.46,1.2,5.85,2.56,5.85,5.98,0,2.99-2.39,5.43-7.22,5.43-2.82,0-4.96-.73-5.81-1.41-.3-.26-.51-.51-.3-.9Z"/>
        <path class="cls-1" d="M200.63,98.43c1.92,0,3.29,.68,3.29,.68,0-1.67-.26-2.52-2.31-2.52-1.15,0-3.16,.3-4.27,.64-.64,.21-.94-.26-1.03-.9l-.38-2.69c-.13-.73,.26-1.03,.64-1.15s3.38-.64,5.68-.64c5.3,0,7.22,2.22,7.22,7.26v9.44c0,.43-.38,.81-.81,.81h-1.88c-.26,0-.56-.09-.77-.56l-.6-1.15c-.98,.9-2.48,2.14-5.17,2.14-3.38,0-5.9-2.27-5.9-5.64s2.39-5.73,6.28-5.73Zm1.11,7.18c1.03,0,1.88-.85,1.88-1.88-.04-.98-.85-1.79-1.88-1.79s-1.84,.81-1.84,1.79,.81,1.88,1.84,1.88Z"/>
        <path class="cls-1" d="M213.42,80.27c0-.43,.38-.81,.81-.81h4.7c.43,0,.81,.38,.81,.81v28.29c0,.43-.38,.81-.81,.81h-4.7c-.43,0-.81-.38-.81-.81v-28.29Z"/>
      </g>
      <g>
        <path class="cls-1" d="M5.12,113.61c-1.31,2.26-2.08,5.45-.97,8.88,1.29,3.99,3.77,4.74,5.55,4.17,2.59-.83,2.42-3.88,2.22-7.29-.24-4.29-.58-9.24,4.45-10.86,4.07-1.31,8.18,1.32,9.84,6.46,1.23,3.81,.98,7.19-.54,10.09l-3.43-1.26c1.39-2.53,1.44-5.4,.58-8.06-.88-2.73-2.9-4.17-4.97-3.5-2.22,.72-2.06,3.6-1.85,6.92,.23,4.37,.49,9.47-4.76,11.17-3.84,1.24-8.29-.26-10.44-6.92-1.42-4.4-.87-8.13,.78-10.99l3.53,1.19Z"/>
        <path class="cls-1" d="M17.71,158.48l10.9-6.13c1.9-1.07,2.67-2.62,1.55-4.61-.93-1.66-3-2.64-4.62-2.75l-11.72,6.58-1.71-3.05,10.9-6.13c1.9-1.07,2.69-2.58,1.53-4.65-.89-1.59-2.97-2.52-4.62-2.66l-11.68,6.56-1.71-3.05,16.35-9.19,1.71,3.05-2.3,1.29c1.4,.11,4.31,1.32,5.68,3.76,1.39,2.47,.92,4.65-.55,6.15,2.06,.09,4.8,1.4,6.15,3.81,1.69,3.01,.95,5.57-2.34,7.42l-11.82,6.64-1.71-3.05Z"/>
        <path class="cls-1" d="M23.63,166.4l14.87-11.44,2.13,2.77-14.87,11.44-2.13-2.77Zm18.78-15.14c.99-.76,2.42-.54,3.16,.41,.76,.98,.57,2.4-.41,3.16-.98,.76-2.37,.55-3.13-.44-.73-.95-.6-2.38,.38-3.13Z"/>
        <path class="cls-1" d="M28.89,173l19.6-16.94,2.29,2.65-19.6,16.94-2.29-2.65Z"/>
        <path class="cls-1" d="M34.5,179.28l13.48-13.05,2.43,2.51-13.48,13.05-2.43-2.51Zm16.95-17.16c.89-.86,2.35-.81,3.18,.05,.86,.89,.84,2.32-.05,3.18s-2.29,.81-3.16-.08c-.84-.87-.87-2.29,.02-3.16Z"/>
        <path class="cls-1" d="M50.62,194.07l7.7-9.2c1.99-2.38,1.42-4.18-.43-5.72-1.67-1.4-4.03-1.65-5.71-1.23l-8.6,10.27-2.68-2.24,12.04-14.39,2.68,2.24-1.69,2.03c1.93-.36,4.85,0,7.09,1.88,3.04,2.54,3.27,5.47,.73,8.51l-8.45,10.1-2.68-2.24Z"/>
        <path class="cls-1" d="M58.91,202.95c.41,2.33,1.69,3.91,3.88,5.23,2.5,1.5,5.72,1.8,7.75-1.6l1.26-2.1c-2.19,.86-4.79,.89-6.95-.41-4.16-2.5-5.32-7.36-2.17-12.62,3.1-5.16,7.97-6.5,12.13-4,2.1,1.26,3.4,3.4,3.66,5.91l1.4-2.33,3,1.8-9.27,15.46c-3.32,5.53-8.33,4.74-12.29,2.37-2.7-1.62-4.32-3.36-5.16-6.35l2.75-1.34Zm18.19-7.3c-.05-1.8-1.25-3.96-3.05-5.04-3-1.8-6.26-.59-8.24,2.71-2,3.33-1.53,6.78,1.47,8.58,1.8,1.08,4.29,1.08,5.9,.28l3.92-6.53Z"/>
        <path class="cls-1" d="M88.9,215.76l6.52-17.59,3.28,1.22-6.52,17.59-3.28-1.22Zm7.88-22.8c.43-1.17,1.77-1.75,2.9-1.33,1.17,.43,1.76,1.73,1.33,2.9-.43,1.17-1.72,1.72-2.88,1.29-1.13-.42-1.77-1.69-1.34-2.86Z"/>
        <path class="cls-1" d="M98.82,214.06c.88,1.68,2.94,3.56,5.38,4.22,2.55,.68,4.18,0,4.59-1.54,.48-1.8-1.42-2.95-3.61-4.1-2.88-1.54-6.26-3.33-5.22-7.23,.77-2.89,3.91-4.7,8.34-3.51,3.11,.83,5.06,2.56,6.21,4.44l-2.13,1.96c-.71-1.56-2.48-3.04-4.77-3.65-2.29-.61-3.96-.09-4.35,1.37-.42,1.58,1.39,2.62,3.5,3.75,2.96,1.56,6.48,3.42,5.36,7.59-.83,3.11-4.04,4.87-8.8,3.59-3.04-.81-5.45-2.47-6.79-4.83l2.28-2.04Z"/>
        <path class="cls-1" d="M126.34,215.6c.23-5.39,4.07-9.66,9.89-9.41,5.86,.25,9.28,4.83,9.05,10.22-.23,5.43-4.03,9.7-9.89,9.45-5.82-.25-9.28-4.83-9.04-10.26Zm15.29,.66c.15-3.53-1.77-6.8-5.53-6.96-3.72-.16-5.96,2.93-6.11,6.46-.15,3.57,1.8,6.84,5.53,7,3.76,.16,5.96-2.93,6.11-6.5Z"/>
        <path class="cls-1" d="M162.99,224.11l-1.33-11.93c-.34-3.09-2.04-3.92-4.43-3.65-2.16,.24-3.98,1.77-4.83,3.27l1.48,13.32-3.47,.39-2.08-18.64,3.47-.39,.29,2.62c1.07-1.64,3.36-3.5,6.26-3.82,3.94-.44,6.22,1.42,6.65,5.36l1.46,13.09-3.47,.39Z"/>
        <path class="cls-1" d="M175.87,201.77c5.43-1.48,9.96,1.84,11.47,7.39l.22,.82-14.32,3.89c1.1,3,4.04,4.94,7.67,3.95,1.91-.52,3.81-1.84,4.78-3.59l2.17,1.78c-1.32,2.25-3.61,3.88-6.54,4.67-5.4,1.47-10.41-1.28-11.96-6.97-1.43-5.25,1.21-10.51,6.49-11.95Zm-3.33,9.68l11.06-3.01c-.73-2.38-3.15-4.94-6.98-3.9-3.64,.99-4.56,4.38-4.08,6.9Z"/>
        <path class="cls-1" d="M199.7,203.88c-2.58-4.74-1.5-10.37,3.62-13.16,5.15-2.81,10.44-.65,13.02,4.09,2.6,4.77,1.55,10.39-3.6,13.2-5.11,2.79-10.44,.65-13.04-4.12Zm13.43-7.32c-1.69-3.1-5.02-4.91-8.33-3.11-3.27,1.78-3.59,5.58-1.9,8.69,1.71,3.14,5.07,4.93,8.35,3.14,3.31-1.8,3.59-5.58,1.88-8.72Z"/>
        <path class="cls-1" d="M219.13,184.93l9.05,12.82-2.85,2.02-9.05-12.82-2.54,1.79-1.77-2.51,2.54-1.79-.72-1.02c-2.33-3.3-1.69-6.51,1.03-8.43,.98-.69,1.97-1.11,2.91-1.2l.84,2.6c-.54,.05-1.1,.26-1.61,.61-1.43,1.01-1.61,2.56-.31,4.4l.72,1.01,3.11-2.2,1.77,2.51-3.11,2.2Z"/>
        <path class="cls-1" d="M239.85,182.81l-8.01-8.3-2.24,2.16-2.13-2.21,2.24-2.16-3.56-3.69,2.52-2.43,3.56,3.69,2.74-2.64,2.13,2.21-2.74,2.64,7.47,7.74c.92,.95,2.04,1.22,2.91,.38,.59-.57,.88-1.33,.86-1.85l2.48,1.28c-.05,1.02-.48,2.13-1.79,3.4-2.12,2.05-4.37,1.9-6.42-.22Z"/>
        <path class="cls-1" d="M259.21,167.74l-9.35-7.65c-2.4-1.97-4.13-1.33-5.66,.54-1.38,1.68-1.61,4.05-1.17,5.72l10.37,8.49-2.21,2.71-20.05-16.4,2.21-2.71,7.57,6.2c-.38-1.92-.02-4.88,1.8-7.11,2.53-3.1,5.38-3.38,8.44-.87l10.25,8.39-2.21,2.71Z"/>
        <path class="cls-1" d="M252.83,142.75c2.86-4.85,8.41-5.64,13.36-2.72l.74,.43-7.53,12.78c2.88,1.38,6.34,.71,8.25-2.53,1-1.71,1.44-3.97,.91-5.91l2.8-.24c.63,2.53,.12,5.3-1.41,7.91-2.84,4.82-8.34,6.36-13.43,3.36-4.68-2.76-6.48-8.37-3.7-13.08Zm4.38,9.25l5.81-9.87c-2.18-1.19-5.7-1.33-7.72,2.08-1.91,3.25-.21,6.32,1.9,7.79Z"/>
        <path class="cls-1" d="M284.53,117.74l-11.8-4.16c-2.05-.72-3.73-.28-4.49,1.88-.63,1.79,0,3.99,.98,5.29l12.67,4.46-1.16,3.3-11.8-4.16c-2.05-.72-3.72-.32-4.5,1.91-.61,1.72,.07,3.89,1.04,5.23l12.64,4.45-1.16,3.3-17.69-6.23,1.16-3.3,2.49,.88c-.84-1.12-1.85-4.11-.92-6.75,.94-2.67,2.89-3.76,4.99-3.64-1.29-1.61-2.11-4.53-1.19-7.13,1.15-3.26,3.56-4.39,7.12-3.13l12.78,4.5-1.16,3.3Z"/>
        <path class="cls-1" d="M282.71,109.73c.25-1.3,1.53-2.2,2.83-1.95,1.3,.25,2.19,1.57,1.94,2.87-.25,1.3-1.56,2.15-2.86,1.9-1.3-.25-2.16-1.52-1.91-2.82Z"/>
      </g>
    </g>
  </g>
</svg>