<?xml version="1.0" encoding="UTF-8"?>
<svg id="Capa_2" data-name="Capa 2" xmlns="http://www.w3.org/2000/svg" viewBox="0 0 27.33 59.28">
  <g id="Capa_1-2" data-name="Capa 1">
    <g>
      <polygon points="10.33 55.95 13.67 59.28 17 55.95 25.35 47.6 22.02 44.26 13.67 52.61 5.31 44.26 1.98 47.6 10.33 55.95"/>
      <path d="M13.67,42.62c-7.54,0-13.67-6.13-13.67-13.67V13.67C0,6.13,6.13,0,13.67,0h0c7.53,0,13.67,6.13,13.67,13.67v15.29c0,7.54-6.13,13.67-13.67,13.67ZM13.67,3.95C8.31,3.95,3.95,8.31,3.95,13.67v15.29c0,5.35,4.36,9.71,9.71,9.71s9.71-4.36,9.71-9.71V13.67c0-5.35-4.36-9.71-9.71-9.71Z"/>
      <rect x="12.13" y="6.23" width="3.08" height="8.29" rx="1.54" ry="1.54"/>
    </g>
  </g>
</svg>