<?xml version="1.0" encoding="UTF-8"?>
<svg id="Capa_2" data-name="Capa 2" xmlns="http://www.w3.org/2000/svg" viewBox="0 0 1377.62 589.27">
  <defs>
    <style>
      .cls-1 {
        fill: #66faae;
      }
    </style>
  </defs>
  <g id="Capa_1-2" data-name="Capa 1">
    <path class="cls-1" d="M1313.39,68.92V20c0-11.05-8.95-20-20-20H163.34c-11.05,0-20,8.95-20,20V175.1c0,11.05-8.95,20-20,20H20c-11.05,0-20,8.95-20,20v354.17c0,11.05,8.95,20,20,20H950.17c11.05,0,20-8.95,20-20v-41.39c0-11.05,8.95-20,20-20h367.45c11.05,0,20-8.95,20-20V108.92c0-11.05-8.95-20-20-20h-24.23c-11.05,0-20-8.95-20-20Z"/>
  </g>
</svg>