<?xml version="1.0" encoding="UTF-8"?>
<svg id="Capa_2" data-name="Capa 2" xmlns="http://www.w3.org/2000/svg" viewBox="0 0 646.56 554.59">
  <defs>
    <style>
      .cls-1 {
        fill: #c9fbe2;
      }
    </style>
  </defs>
  <g id="Capa_1-2" data-name="Capa 1">
    <path class="cls-1" d="M646.56,10V94.01c0,5.52-4.48,10-10,10h-26.57c-5.52,0-10,4.48-10,10v80.6c0,5.52-4.48,10-10,10h-93.96c-5.52,0-10,4.48-10,10v246.36c0,5.52,4.48,10,10,10h23.2c5.52,0,10,4.48,10,10v63.62c0,5.52-4.48,10-10,10h-198.78c-5.52,0-10-4.48-10-10v-43.79c0-5.52-4.48-10-10-10h-51.94c-5.52-.01-10-4.49-10-10.02l.05-85.16c0-3.95-3.19-7.15-7.14-7.16l-224.29-.31C3.19,388.14,0,384.94,0,381V216.77c0-3.95,3.2-7.15,7.15-7.15l142.3-.04c3.95,0,7.15-3.21,7.15-7.15V102.26c0-5.53-4.49-10.01-10.02-10h-8.23c-5.53,.02-10.02-4.46-10.02-9.99v-28.63c0-5.52,4.48-10,10-10h72.29c5.52,0,10-4.48,10-10V10c0-5.52,4.48-10,10-10h405.94c5.52,0,10,4.48,10,10Z"/>
  </g>
</svg>