<?xml version="1.0" encoding="UTF-8"?>
<svg id="Capa_2" data-name="Capa 2" xmlns="http://www.w3.org/2000/svg" viewBox="0 0 182.42 115.8">
  <defs>
    <style>
      .cls-1 {
        fill: #00f77b;
      }
    </style>
  </defs>
  <g id="Capa_1-2" data-name="Capa 1">
    <g>
      <g>
        <path class="cls-1" d="M38.15,40.14h10.91c6.95,0,10.55,3.07,10.55,9.09s-3.6,9.09-10.55,9.09h-3.76v8.49h-7.15v-26.68Zm10.51,12.13c2.63,0,3.68-.93,3.68-3.03s-1.05-3.03-3.68-3.03h-3.35v6.06h3.35Z"/>
        <path class="cls-1" d="M61.19,57.96c0-5.46,4.04-9.34,9.7-9.34s9.7,3.88,9.7,9.34-4.04,9.34-9.7,9.34-9.7-3.88-9.7-9.34Zm12.61,0c0-2.22-1.05-3.48-2.91-3.48s-2.91,1.25-2.91,3.48,1.05,3.48,2.91,3.48,2.91-1.25,2.91-3.48Z"/>
        <path class="cls-1" d="M81.58,49.11h7.07l2.1,9.05,2.99-9.05h3.96l3.19,9.66,2.26-9.66h6.59l-5.7,17.7h-5.58l-2.83-8.57-2.79,8.57h-5.58l-5.7-17.7Z"/>
        <path class="cls-1" d="M110.73,57.84c0-5.62,3.6-9.21,9.3-9.21s8.77,3.27,8.77,8.41c0,.97-.12,1.74-.28,2.67h-10.99c.53,1.74,2.02,2.59,4.61,2.59,2.02,0,3.64-.53,5.62-1.9v5.33c-2.1,1.13-3.88,1.58-6.31,1.58-6.71,0-10.71-3.52-10.71-9.46Zm12.29-1.7c-.24-1.74-1.17-2.59-2.79-2.59s-2.59,.85-2.83,2.59h5.62Z"/>
        <path class="cls-1" d="M132.54,49.11h4.85l.93,3.11c1.05-2.55,2.51-3.6,4.65-3.6,.4,0,.85,.04,1.29,.12v6.79c-.57-.12-1.05-.16-1.46-.16-1.9,0-3.07,.81-3.56,2.47v8.97h-6.71v-17.7Z"/>
      </g>
      <g>
        <g>
          <path class="cls-1" d="M0,97.29c0-5.46,4.04-9.34,9.7-9.34s9.7,3.88,9.7,9.34-4.04,9.34-9.7,9.34S0,102.75,0,97.29Zm12.61,0c0-2.22-1.05-3.48-2.91-3.48s-2.91,1.25-2.91,3.48,1.05,3.48,2.91,3.48,2.91-1.25,2.91-3.48Z"/>
          <path class="cls-1" d="M23.83,93.74h-2.47v-5.29h2.47v-3.92c0-5.09,2.3-7.56,7.19-7.56,1.54,0,2.79,.24,3.72,.69v5.34c-.53-.24-1.17-.44-1.98-.44-1.5,0-2.22,.73-2.22,2.18v3.72h3.48v5.29h-3.48v12.41h-6.71v-12.41Z"/>
        </g>
        <g>
          <path class="cls-1" d="M52.34,104.49v-6.67c2.51,1.82,5.9,2.83,9.09,2.83,2.63,0,3.88-.69,3.88-2.26,0-1.09-.57-1.78-3.15-2.34l-2.99-.65c-5.01-1.09-7.19-3.4-7.19-7.72,0-5.7,3.88-8.69,10.79-8.69,3.23,0,6.22,.65,8.33,1.82v6.63c-2.42-1.58-5.29-2.47-8.08-2.47-2.55,0-3.8,.73-3.8,2.18,0,1.13,.77,1.66,3.44,2.22l2.99,.65c4.81,1.05,6.91,3.35,6.91,7.8,0,5.94-3.72,8.81-10.95,8.81-3.76,0-7.11-.77-9.26-2.14Z"/>
          <path class="cls-1" d="M76.38,88.44h4.85l.73,2.51c1.37-2.14,3.15-2.99,5.5-2.99s4.12,.93,5.05,2.75c1.29-1.9,2.95-2.75,5.29-2.75,3.84,0,5.9,2.34,5.9,6.99v11.2h-6.71v-10.02c0-1.29-.53-2.02-1.66-2.02-.85,0-1.5,.48-1.94,1.46v10.59h-6.71v-10.02c0-1.29-.57-2.02-1.66-2.02-.85,0-1.5,.44-1.94,1.41v10.63h-6.71v-17.7Z"/>
          <path class="cls-1" d="M107.47,82.14c0-2.22,1.62-3.8,3.92-3.8s3.92,1.58,3.92,3.8-1.62,3.76-3.92,3.76-3.92-1.54-3.92-3.76Zm.57,6.3h6.71v17.7h-6.71v-17.7Z"/>
          <path class="cls-1" d="M119.23,77.45h6.71v28.7h-6.71v-28.7Z"/>
          <path class="cls-1" d="M129.87,82.14c0-2.22,1.62-3.8,3.92-3.8s3.92,1.58,3.92,3.8-1.62,3.76-3.92,3.76-3.92-1.54-3.92-3.76Zm.57,6.3h6.71v17.7h-6.71v-17.7Z"/>
          <path class="cls-1" d="M141.66,88.44h4.85l.73,2.47c1.37-2.1,3.11-2.95,5.46-2.95,3.88,0,6.02,2.38,6.02,6.99v11.2h-6.71v-10.02c0-1.37-.53-2.02-1.66-2.02-.89,0-1.54,.44-1.98,1.37v10.67h-6.71v-17.7Z"/>
          <path class="cls-1" d="M161.88,110.79c0-2.02,1.01-3.4,2.83-4.16v-.08c-1.37-.69-2.02-1.74-2.02-3.27s.65-2.83,2.3-3.8v-.08c-1.62-1.09-2.43-2.71-2.43-5.01,0-4.28,2.87-6.43,8.41-6.43,2.1,0,3.84,.32,5.17,.93,1.01-2.3,2.67-3.31,4.89-3.31,.44,0,.89,.04,1.37,.12v6.35c-.4-.08-.93-.16-1.58-.16s-1.25,.08-1.74,.28c.2,.65,.32,1.41,.32,2.22,0,4.28-2.87,6.43-8.45,6.43-.81,0-1.54-.04-2.22-.12-.32,.24-.48,.57-.48,.93,0,.69,.57,.97,2.06,.97h3.88c4.69,0,7.19,2.06,7.19,6.1,0,4.77-3.48,7.11-10.71,7.11-5.9,0-8.81-1.58-8.81-5.01Zm12.81-1.41c0-.97-.77-1.33-2.42-1.33h-3.15c-.69,.32-.97,.81-.97,1.46,0,1.17,.89,1.66,3.07,1.66,2.3,0,3.48-.57,3.48-1.78Zm-1.33-14.99c0-1.25-.73-1.9-2.34-1.9s-2.47,.65-2.47,1.9,.85,1.94,2.47,1.94,2.34-.65,2.34-1.94Z"/>
        </g>
      </g>
      <g>
        <g>
          <path class="cls-1" d="M37.86,12.98h4.85l.73,2.47c1.37-2.1,3.11-2.95,5.46-2.95,3.88,0,6.02,2.38,6.02,6.99v11.2h-6.71v-10.02c0-1.37-.53-2.02-1.66-2.02-.89,0-1.54,.44-1.98,1.37v10.67h-6.71V12.98Z"/>
          <path class="cls-1" d="M59.3,1.98h6.71V30.68h-6.71V1.98Z"/>
          <path class="cls-1" d="M69.93,6.67c0-2.22,1.62-3.8,3.92-3.8s3.92,1.58,3.92,3.8-1.62,3.76-3.92,3.76-3.92-1.54-3.92-3.76Zm.57,6.3h6.71V30.68h-6.71V12.98Z"/>
          <path class="cls-1" d="M81.72,12.98h4.85l.73,2.51c1.37-2.14,3.15-2.99,5.5-2.99s4.12,.93,5.05,2.75c1.29-1.9,2.95-2.75,5.29-2.75,3.84,0,5.9,2.34,5.9,6.99v11.2h-6.71v-10.02c0-1.29-.53-2.02-1.66-2.02-.85,0-1.5,.48-1.94,1.46v10.59h-6.71v-10.02c0-1.29-.57-2.02-1.66-2.02-.85,0-1.5,.44-1.94,1.41v10.63h-6.71V12.98Z"/>
          <path class="cls-1" d="M112.81,6.67c0-2.22,1.62-3.8,3.92-3.8s3.92,1.58,3.92,3.8-1.62,3.76-3.92,3.76-3.92-1.54-3.92-3.76Zm.57,6.3h6.71V30.68h-6.71V12.98Z"/>
          <path class="cls-1" d="M125.47,24.78v-6.51h-2.47v-5.29h2.63l.08-2.79,6.47-3.27v6.06h3.92v5.29h-3.92v4.89c0,1.5,.69,2.14,1.94,2.14,.61,0,1.29-.16,1.98-.49v5.54c-1.13,.57-2.3,.81-3.84,.81-4.57,0-6.79-2.14-6.79-6.39Z"/>
          <path class="cls-1" d="M138.73,21.7c0-5.62,3.6-9.21,9.3-9.21s8.77,3.27,8.77,8.41c0,.97-.12,1.74-.28,2.67h-10.99c.53,1.74,2.02,2.59,4.61,2.59,2.02,0,3.64-.53,5.62-1.9v5.33c-2.1,1.13-3.88,1.58-6.31,1.58-6.71,0-10.71-3.52-10.71-9.46Zm12.29-1.7c-.24-1.74-1.17-2.59-2.79-2.59s-2.59,.85-2.83,2.59h5.62Z"/>
          <path class="cls-1" d="M159.62,21.87c0-5.58,3.15-9.38,7.76-9.38,1.78,0,3.39,.57,4.57,1.94V1.98h6.71V30.68h-4.85l-.73-2.51c-1.29,2.06-3.07,2.99-5.46,2.99-4.77,0-8-3.64-8-9.3Zm12.33,2.18v-4.41c-.57-.81-1.45-1.29-2.59-1.29-1.86,0-2.95,1.29-2.95,3.48s1.09,3.48,2.95,3.48c1.13,0,2.02-.44,2.59-1.25Z"/>
        </g>
        <path class="cls-1" d="M19.33,32.3c-8.59,0-15.57-6.98-15.57-15.57V5.08C3.76,2.71,5.3,.73,7.6,.16c.42-.1,.84-.16,1.26-.16,1.88,0,3.54,1.01,4.44,2.7l4.45,8.36c.31,.59,.9,.94,1.57,.94s1.25-.35,1.57-.94L25.35,2.7c.9-1.69,2.56-2.7,4.44-2.7,.42,0,.85,.05,1.26,.16,2.3,.57,3.84,2.55,3.84,4.92v11.65c0,8.59-6.98,15.57-15.57,15.57Zm-9.32-15.57c0,5.05,4.11,9.23,9.16,9.32h.16c5.14,0,9.32-4.26,9.32-9.5v-6.76l-2.24,4.21c-1.4,2.62-4.11,4.25-7.08,4.25-.17,0-.34,0-.51-.02-2.75-.17-5.3-1.85-6.64-4.37l-2.17-4.08v6.94Z"/>
      </g>
    </g>
  </g>
</svg>