<?xml version="1.0" encoding="UTF-8"?>
<svg id="Capa_2" data-name="Capa 2" xmlns="http://www.w3.org/2000/svg" viewBox="0 0 82.45 82.46">
  <defs>
    <style>
      .cls-1 {
        fill: #02382e;
      }
    </style>
  </defs>
  <g id="Capa_1-2" data-name="Capa 1">
    <g>
      <path class="cls-1" d="M41.22,0c22.82,0,41.29,18.49,41.23,41.36-.06,22.73-18.47,41.16-41.36,41.1C18.37,82.4-.07,63.98,0,41.09,.07,18.43,18.41,.05,41.22,0Zm0,1.66C19.44,1.61,1.64,19.35,1.64,41.21c0,21.86,17.69,39.57,39.53,39.61,21.9,.03,39.66-17.79,39.64-39.62-.02-21.8-17.76-39.59-39.6-39.54Z"/>
      <path class="cls-1" d="M41.21,13.6c15.26-.02,27.69,12.36,27.65,27.72-.04,15.28-12.46,27.59-27.7,27.55-15.26-.04-27.63-12.45-27.57-27.76,.05-15.17,12.42-27.52,27.62-27.51Zm-19.16,10s.02,.07,.04,.11H60.38s.02-.08,.03-.13c-5.71-5.92-12.68-8.83-20.92-8.32-6.9,.43-12.7,3.32-17.43,8.33Zm.04,35.16s-.03,.1-.04,.14c5.95,6.11,13.17,9.01,21.72,8.23,6.59-.6,12.11-3.48,16.63-8.26-.01-.04-.03-.07-.04-.11H22.09Zm21.16-12.35c.84-4.02,1.66-7.99,2.49-11.95,.02,0,.03,0,.05,0,0,.14,0,.27,0,.41,0,3.68,0,7.35-.01,11.03,0,.43,.13,.54,.53,.52,.68-.03,1.36,0,2.04,0q.55,0,.55-.56c0-4.56,0-9.12,0-13.68,0-1.8,0-3.59,0-5.39,0-.24,.02-.45-.34-.45-1.2,.02-2.4,0-3.59,0-.21,0-.31,.06-.35,.29-.12,.74-.27,1.47-.41,2.2-.62,3.3-1.24,6.59-1.87,9.89-.1,.55-.21,1.11-.33,1.73-.05-.12-.08-.17-.09-.22-.34-1.72-.67-3.44-1.01-5.16-.54-2.79-1.09-5.57-1.62-8.36-.05-.28-.17-.38-.46-.37-1.21,.01-2.42,0-3.64,0-.12,0-.23,.02-.35,.03v20h3.05v-12.01c.05,.06,.07,.08,.08,.1,.48,2.05,.95,4.1,1.43,6.15,.43,1.84,.86,3.68,1.3,5.51,.03,.11,.17,.27,.26,.28,.75,.02,1.49,.01,2.28,.01Zm-10.99-13.17c0-.84,0-1.63,0-2.41-.03-1.84-.9-3.22-2.46-4.1-3.19-1.8-7.13,.51-7.15,4.18-.02,3.68,0,7.35,0,11.03,0,1.13,.38,2.13,1.1,3,1.3,1.58,3.44,2.17,5.39,1.46,1.67-.61,3.18-2.36,3.13-4.53-.04-2.16-.01-4.33-.02-6.49,0-.16-.01-.32-.02-.47-.08-.02-.12-.04-.15-.04-1.47,0-2.94,0-4.41,0-.21,0-.29,.09-.28,.29,0,.83,0,1.66,0,2.49,0,.26,.11,.33,.34,.33,.33,0,.65,.01,.98,0,.28-.01,.39,.09,.38,.37-.01,1.14,0,2.29,0,3.43-.01,1.03-.74,1.76-1.7,1.76-.99,0-1.68-.7-1.69-1.75,0-3.61,0-7.22,0-10.82,0-1.01,.71-1.75,1.65-1.77,.94-.02,1.7,.74,1.74,1.74,.01,.26,0,.52,0,.78,0,.51,0,1.02,0,1.55h3.17Zm22.38,5.69c.88-.05,1.7-.04,2.5-.14,1.93-.22,3.74-2.14,3.86-4.08,.06-1.03,.07-2.07,.07-3.1,0-.54-.01-1.1-.12-1.62-.47-2.27-2.16-3.62-4.51-3.64-1.47-.01-2.94,.01-4.41-.01-.4,0-.53,.09-.53,.52,.02,3.34,.01,6.67,.01,10.01,0,3.04,0,6.07,0,9.11,0,.33,.08,.46,.43,.45,.73-.02,1.47-.03,2.21,0,.41,.02,.5-.13,.49-.51-.02-2.14,0-4.28,0-6.41,0-.19,.02-.37,.02-.56Zm-20.83,14.05q.8-.12,.96,.56c.19,.78,.37,1.56,.57,2.33,.03,.12,.15,.31,.24,.31,.43,.03,.85,.01,1.34,.01-.31-1.2-.6-2.33-.89-3.46-.06-.22-.02-.38,.11-.59,.22-.33,.43-.72,.47-1.1,.08-.62,.06-1.25,0-1.87-.07-.81-.45-1.5-1.29-1.63-.93-.15-1.88-.11-2.84-.16v8.82c.33,0,.61-.02,.89,0,.34,.03,.44-.09,.44-.43-.02-.92,0-1.85,0-2.79Zm23.19-5.49s-.02,.08-.02,.12c0,2.76,0,5.52,0,8.28,0,.26,.11,.32,.34,.32,.6-.01,1.2,0,1.79,0,1.12-.01,2.05-.92,2.06-2.05,.01-1.56,.01-3.13,0-4.69,0-.94-.66-1.83-1.59-1.95-.84-.11-1.7-.02-2.58-.02Zm-31.65,5.5c0,.41,.01,.79,0,1.17-.02,.47-.32,.75-.75,.73-.41-.01-.67-.3-.67-.75,0-1.55,0-3.1,0-4.66,0-.47,.29-.78,.7-.78,.4,0,.71,.32,.73,.77,0,.22,.02,.44,0,.65-.03,.29,.1,.37,.38,.37,1.06,.01,1.06,.02,1.05-1.04,0-1.21-.91-2.11-2.11-2.12-1.18,0-2.09,.89-2.1,2.08,0,1.61,0,3.21,0,4.82,0,1,.7,1.85,1.66,2.04,1.01,.2,2.06-.3,2.37-1.28,.2-.62,.17-1.32,.25-2.02h-1.49Zm27.03-5.55c-.03,.06-.04,.07-.04,.09,0,2.8-.01,5.61-.02,8.41,0,.26,.16,.27,.35,.27,.93,0,1.85,0,2.78,0,.21,0,.43,0,.66,0v-1.38h-2.34v-2.3c.27,0,.5,0,.73,0,1.01,0,.99,0,.99-1.02,0-.31-.1-.41-.4-.4-.44,.02-.88,0-1.36,0,0-.69,.01-1.3,0-1.91,0-.29,.1-.38,.38-.37,.56,.01,1.12,.01,1.67,0,.12,0,.33-.11,.33-.18,.03-.4,.02-.8,.02-1.2h-3.74Zm-24.58-.02c0,.23,0,.39,0,.55,0,1.85,0,3.7,0,5.55,0,.78,0,1.55,0,2.33,0,.18-.02,.36,.26,.35,1.09,0,2.18,0,3.26,0,.09,0,.25-.1,.25-.17,.02-.39,.01-.77,.01-1.2-.73,0-1.39,.01-2.06,0-.13,0-.35-.13-.35-.2-.03-.69-.02-1.38-.02-2.09h.79c1.01,0,1,0,1-1.01,0-.34-.13-.42-.43-.41-.44,.02-.88,0-1.37,0,0-.73,0-1.4,.01-2.06,0-.08,.16-.2,.26-.21,.38-.02,.76,0,1.14-.01,1.22-.03,1,.26,1.02-1.11,0-.03,0-.07,0-.08-.07-.08-.15-.21-.23-.21-1.17-.01-2.33,0-3.56,0Zm17.43,.02v8.76c.34,0,.66-.02,.97,0,.29,.02,.38-.09,.37-.37-.01-.94,0-1.88,0-2.82,0-.16,.01-.32,.02-.49,.3,0,.56,0,.82,0,.96,.01,.94,.01,.96-.93,0-.41-.14-.52-.52-.49-.41,.03-.83,0-1.29,0,0-.68,.02-1.29,0-1.9-.01-.32,.11-.39,.4-.39,.56,.02,1.12,.01,1.67,0,.12,0,.34-.1,.34-.17,.03-.4,.02-.8,.02-1.21h-3.76Zm-3.51-.02c-1.3,0-2.54,.01-3.77,0-.35,0-.43,.12-.43,.44,0,.97,0,.98,.97,.97,.33,0,.44,.09,.44,.43-.02,2,0,4,0,6,0,.95,0,.93,.94,.95,.38,0,.48-.11,.48-.48-.02-2.11,0-4.22,0-6.33,0-.17,0-.35,0-.57,.4,0,.75,.02,1.09-.01,.11-.01,.27-.17,.28-.28,.04-.35,.01-.7,.01-1.12Zm2.37,4.39h0c0-1.16,0-2.31,0-3.47,0-.92,0-.91-.92-.93-.4-.01-.5,.11-.5,.5,.02,2.44,0,4.87,0,7.31,0,1,0,.98,.98,.99,.34,0,.44-.11,.44-.44-.01-1.32,0-2.64,0-3.96Zm5.76,4.39c.33,0,.62-.03,.9,0,.39,.05,.47-.13,.47-.48-.01-2.62,0-5.25,0-7.87,0-.13-.02-.26-.03-.4h-1.33v8.75Z"/>
      <path class="cls-1" d="M20.49,14.11c.1,.9,.2,1.8,.31,2.77-.93-.27-1.8-.53-2.66-.78l-.05,.09c.73,.87,1.45,1.74,2.2,2.63-.42,.35-.81,.68-1.25,1.05-1.32-1.57-2.62-3.13-3.96-4.73,.43-.36,.83-.72,1.26-1.03,.1-.07,.31-.03,.46,.01,.76,.24,1.51,.5,2.35,.78-.08-.63-.14-1.2-.23-1.75-.18-1.07-.19-1.06,.64-1.76,.18-.15,.36-.29,.56-.46,1.32,1.57,2.62,3.14,3.96,4.73-.42,.35-.82,.69-1.27,1.06-.75-.89-1.49-1.77-2.22-2.65-.03,.01-.07,.03-.1,.04Z"/>
      <path class="cls-1" d="M77.85,37.51c.07,.47,.14,.87,.2,1.27,.03,.2,.02,.36-.26,.4-1.92,.25-3.85,.52-5.81,.79-.06-.44-.14-.87-.17-1.3,0-.13,.11-.3,.21-.41,.75-.79,1.52-1.56,2.27-2.34,.14-.14,.28-.29,.39-.54-1.08,.14-2.15,.28-3.29,.43-.06-.49-.13-.97-.17-1.45,0-.07,.13-.2,.21-.22,1.79-.25,3.58-.5,5.37-.74,.15-.02,.3,0,.49,0,.06,.43,.15,.87,.18,1.31,0,.13-.1,.3-.2,.41-.75,.79-1.52,1.56-2.28,2.34-.11,.11-.21,.23-.28,.44,1.04-.14,2.07-.28,3.13-.42Z"/>
      <path class="cls-1" d="M36.56,10.81c-.45,.11-.85,.24-1.26,.31-.13,.02-.31-.07-.43-.16-.96-.73-1.91-1.48-2.87-2.22-.07-.06-.15-.1-.33-.23,.16,.65,.29,1.2,.43,1.74,.11,.42,.2,.84,.33,1.26,.07,.24,0,.35-.23,.41-.42,.09-.84,.2-1.29,.31-.51-2-1-3.97-1.51-5.98,.51-.13,.96-.26,1.42-.35,.1-.02,.25,.08,.35,.16,.84,.65,1.67,1.3,2.51,1.95,.15,.12,.3,.23,.54,.3-.25-1.01-.5-2.02-.76-3.09,.53-.13,1.03-.26,1.59-.4,.51,2,1,3.95,1.51,5.97Z"/>
      <path class="cls-1" d="M70.27,31.05c-.27-.58-.51-1.05-.71-1.54-.05-.12-.01-.32,.06-.44,.23-.42,.48-.82,.73-1.22,.33-.55,.33-.58-.1-1.17-.26,.12-.53,.24-.8,.36-.27,.12-.54,.25-.86,.4-.23-.5-.46-.98-.71-1.5,1.87-.87,3.71-1.73,5.64-2.63,.51,1.21,1.07,2.35,1.48,3.55,.3,.86-.07,1.65-.76,2.11-.81,.55-1.62,.55-2.43,0-.06-.04-.11-.07-.23-.14-.43,.72-.86,1.44-1.32,2.21Zm2.34-3.28c.54,0,.96-.3,.88-.65-.12-.54-.38-1.06-.58-1.58-.32,.11-.64,.22-.96,.34-.1,.04-.22,.07-.29,.14-.06,.06-.12,.19-.1,.26,.18,.39,.35,.8,.58,1.16,.12,.18,.37,.27,.46,.34Z"/>
      <path class="cls-1" d="M28.15,72.78c.14,.85,.27,1.65,.41,2.54-.59-.28-1.11-.51-1.61-.77-.09-.05-.15-.22-.17-.34-.08-.46-.16-.91-.19-1.37-.03-.53-.31-.77-.85-.87-.25,.53-.52,1.07-.8,1.65-.5-.23-.98-.45-1.5-.7,.88-1.87,1.74-3.7,2.62-5.58,.23,.1,.43,.19,.64,.29,.8,.38,1.61,.74,2.39,1.15,.75,.4,1.25,1,1.25,1.91,0,.99-.74,1.87-1.72,2.02-.14,.02-.29,.04-.48,.07Zm-1.84-2.02c.49,.21,.94,.44,1.41,.6,.37,.12,.7-.08,.87-.43,.17-.35,.08-.67-.22-.87-.43-.28-.9-.49-1.38-.74-.24,.51-.45,.94-.68,1.44Z"/>
      <path class="cls-1" d="M13.94,27.12c-1.77-1.14-3.48-2.23-5.2-3.34,.05-.1,.07-.19,.12-.26,.53-.79,.99-1.64,1.6-2.37,1.49-1.8,4.11-1.49,5.12,.56,.41,.84,.42,1.72,.03,2.52-.48,.98-1.09,1.9-1.66,2.88Zm-.4-2.24c.51-.69,.99-1.34,.64-2.22-.23-.58-1.01-1.08-1.59-1.03-.93,.09-1.33,.78-1.73,1.53,.91,.58,1.78,1.14,2.68,1.72Z"/>
      <path class="cls-1" d="M9.51,33.06c-1.79,0-3.23-1.43-3.22-3.21,0-1.89,1.5-3.46,3.27-3.45,1.79,.01,3.21,1.45,3.21,3.23,0,1.89-1.46,3.43-3.26,3.43Zm.08-1.69c.92,0,1.65-.69,1.67-1.59,.02-.91-.8-1.68-1.79-1.69-.9,0-1.64,.72-1.65,1.62-.01,.88,.82,1.65,1.77,1.66Z"/>
      <path class="cls-1" d="M4.54,37.33c0-1.89,1.36-3.31,3.15-3.36,1.63-.05,3.26,1.26,3.27,3.29,0,1.88-1.42,3.37-3.22,3.37-1.81,0-3.21-1.43-3.21-3.3Zm3.2,1.58c.96,.01,1.7-.67,1.72-1.58,.01-.93-.75-1.66-1.74-1.67-.94,0-1.69,.7-1.71,1.61-.02,.9,.74,1.63,1.72,1.64Z"/>
      <path class="cls-1" d="M76.92,46.84c-.33-.37-.65-.72-.95-1.06,.16-.35,.4-.73,.52-1.15,.26-.91-.29-1.75-1.25-2.01-.91-.24-1.89,.26-2.13,1.11-.07,.23-.11,.48-.1,.72,.03,.7,.23,.85,.98,.76,.03-.18,.06-.36,.08-.55,.02-.19,.03-.38,.06-.63,.38,.03,.75,.07,1.17,.1-.04,.63-.09,1.24-.13,1.85,0,.11-.03,.22-.04,.32-.04,.64-.04,.63-.7,.56-.53-.05-1.06-.09-1.59-.11-.36-.01-.61-.13-.77-.48-.63-1.37-.7-2.74,.12-4.05,.71-1.12,2.04-1.61,3.39-1.3,1.21,.28,2.2,1.34,2.39,2.57,.2,1.29-.18,2.53-1.05,3.33Z"/>
      <path class="cls-1" d="M5.09,42.27c.44,.29,.83,.55,1.24,.83-.3,.55-.53,1.09-.37,1.72,.23,.92,1.11,1.46,2.11,1.25,.93-.19,1.52-1.07,1.34-1.98,0-.03-.02-.05-.02-.08-.17-.8-.27-.86-1.13-.7,.02,.27,.04,.55,.08,.83,.04,.25-.02,.39-.3,.41-.27,.01-.54,.05-.86,.08-.1-.91-.19-1.82-.29-2.77,.89-.09,1.72-.19,2.55-.26,.1,0,.25,.05,.32,.12,1.18,1.23,1.59,3.52,.37,4.97-.85,1.02-1.99,1.33-3.24,1.04-1.27-.29-2.04-1.16-2.34-2.41-.25-1.05-.16-2.07,.53-3.04Z"/>
      <path class="cls-1" d="M60.96,64.04c.29,.39,.55,.73,.84,1.12-.88,.64-1.75,1.28-2.67,1.95,.2,.27,.38,.52,.59,.81,.81-.59,1.6-1.16,2.42-1.75,.25,.34,.49,.67,.77,1.04-.8,.59-1.58,1.16-2.41,1.76,.2,.28,.38,.54,.61,.85,.9-.65,1.78-1.29,2.7-1.96,.28,.37,.55,.73,.85,1.14-.07,.04-.11,.07-.16,.1-1.29,.94-2.57,1.87-3.9,2.84-1.21-1.66-2.4-3.31-3.62-5,1.33-.97,2.64-1.93,3.98-2.9Z"/>
      <path class="cls-1" d="M71.43,20.19c.34,.46,.66,.89,1.02,1.37-1.14,.82-2.22,1.67-3.38,2.4-.96,.6-1.96,.47-2.78-.32-.45-.43-.84-.97-1.12-1.53-.48-.97-.27-1.93,.53-2.64,1.03-.9,2.15-1.69,3.27-2.56,.36,.48,.68,.91,1.03,1.37-.65,.48-1.27,.94-1.88,1.41-.37,.28-.75,.55-1.1,.85-.32,.28-.52,.65-.39,1.09,.14,.47,.43,.82,.92,.95,.43,.11,.77-.1,1.09-.34,.79-.58,1.57-1.17,2.36-1.75,.13-.1,.26-.19,.42-.3Z"/>
      <path class="cls-1" d="M37.24,4.56c.49-.02,1.01-.05,1.58-.08,.03,.61,.06,1.19,.08,1.77,.03,.64,.03,1.28,.09,1.91,.07,.75,.5,1.09,1.26,1.06,.67-.03,1.07-.45,1.06-1.18,0-1.05-.06-2.09-.08-3.14,0-.15,0-.29,0-.48h1.74c0,1.38,.01,2.75,0,4.12,0,.25-.1,.51-.2,.74-.43,1-1.28,1.36-2.28,1.43-.44,.03-.9,.01-1.34-.08-.91-.2-1.51-.78-1.73-1.69-.09-.39-.15-.8-.15-1.21-.02-1.03,0-2.06,0-3.17Z"/>
      <path class="cls-1" d="M30.52,12.33c-.26,.14-.48,.22-.67,.36-.59,.42-1.13,.49-1.62-.16-.06-.08-.33-.1-.45-.04-.54,.24-1.07,.54-1.61,.79-.27,.12-.34,.29-.31,.57,.1,.79,.09,.79-.61,1.15-.26,.13-.53,.26-.85,.42-.05-.67-.1-1.27-.14-1.88-.1-1.49-.2-2.98-.31-4.47-.02-.27,.03-.43,.29-.54,.39-.16,.78-.52,1.13-.48,.35,.04,.67,.47,.99,.74,1.26,1.06,2.51,2.13,3.76,3.19,.12,.1,.24,.21,.41,.36Zm-4.81-.25c.46-.23,.86-.43,1.32-.66-.5-.45-.95-.85-1.39-1.25-.04,.02-.07,.04-.11,.06,.06,.59,.11,1.17,.18,1.85Z"/>
      <path class="cls-1" d="M29.49,75.69c.89-1.21,1.73-2.36,2.57-3.51,.39-.54,.79-1.07,1.18-1.62,.16-.22,.3-.36,.6-.23,.2,.09,.42,.11,.63,.16,.62,.14,.6,.14,.7,.78,.3,1.84,.61,3.67,.92,5.5,.02,.14,.04,.29,.06,.49-.57-.13-1.08-.23-1.58-.37-.08-.02-.15-.21-.17-.33-.14-.86-.14-.87-.98-1.08-.41-.1-.83-.16-1.23-.29-.27-.09-.39,.02-.53,.22-.49,.71-.5,.7-1.36,.48-.25-.06-.5-.12-.82-.2Zm4.34-3.21s-.08,0-.12-.01c-.34,.49-.68,.98-1.05,1.52,.52,.12,.94,.21,1.44,.33-.1-.67-.18-1.25-.26-1.84Z"/>
      <path class="cls-1" d="M48.22,11.22c.95-1.04,1.85-2.04,2.76-3.03,.52-.57,1.05-1.14,1.56-1.72,.16-.18,.3-.24,.53-.13,.14,.07,.3,.11,.46,.17,.79,.27,.78,.27,.83,1.08,.1,1.71,.22,3.42,.32,5.13,.01,.24,0,.49,0,.78-.53-.19-1.03-.35-1.51-.55-.08-.03-.14-.21-.15-.33-.06-1.1,.1-.82-.93-1.22-.32-.12-.65-.2-.96-.34-.36-.17-.59-.07-.83,.23-.42,.53-.44,.52-1.09,.28-.31-.11-.63-.22-.99-.35Zm4.64-.9v-1.84s-.07-.01-.1-.02c-.39,.45-.78,.89-1.21,1.39,.48,.17,.89,.32,1.31,.46Z"/>
      <path class="cls-1" d="M20.3,68.63c-.36,.48-.69,.93-1.05,1.42-.45-.33-.88-.64-1.34-.98,1.23-1.68,2.43-3.32,3.68-5.03,.95,.76,1.95,1.4,2.75,2.24,1.38,1.44,.1,3.32-1.23,3.51-.73,.1-1.36-.17-1.95-.56-.27-.18-.53-.38-.85-.6Zm1.78-2.44c-.35,.48-.67,.91-1.02,1.39,.34,.23,.63,.47,.96,.65,.42,.22,.83,.1,1.07-.26,.26-.38,.23-.76-.14-1.09-.26-.24-.55-.43-.88-.69Z"/>
      <path class="cls-1" d="M62.09,12.17c-.51,.06-.99,.12-1.53,.18-.11-.65-.41-1.22-1.08-1.42-.3-.09-.68-.09-.99,0-.85,.27-1.39,1.32-1.16,2.13,.25,.9,.99,1.23,2.28,1.02,.19,.44,.38,.88,.57,1.32-1.04,.62-2.59,.34-3.59-.62-1.05-1-1.28-2.5-.58-3.81,.68-1.29,2.1-1.95,3.5-1.63,1.45,.32,2.51,1.47,2.57,2.84Z"/>
      <path class="cls-1" d="M43.04,72.54c-.4,.29-.81,.58-1.23,.89-.42-.48-.9-.85-1.55-.73-.33,.06-.68,.23-.92,.46-.64,.6-.63,1.76-.05,2.42,.61,.7,1.44,.65,2.52-.17,.37,.29,.76,.58,1.14,.88-.59,1.04-2.12,1.56-3.46,1.2-1.41-.38-2.33-1.61-2.32-3.12,.01-1.5,.94-2.72,2.36-3.1,1.39-.37,2.91,.17,3.52,1.28Z"/>
      <path class="cls-1" d="M58.73,71.67c-.21,1.45-1.33,2.5-2.94,2.69-1.13,.14-2.56-.45-3.21-1.98-.56-1.32-.2-2.83,.91-3.73,1.09-.88,2.62-1.05,3.59-.37-.22,.44-.45,.88-.63,1.26-.45-.03-.85-.13-1.22-.07-.77,.12-1.23,.74-1.22,1.5,.01,.84,.61,1.63,1.35,1.8,.71,.16,1.46-.22,1.74-.96,.14-.37,.3-.44,.65-.34,.32,.09,.66,.13,.99,.19Z"/>
      <path class="cls-1" d="M49.05,7.85c-.05,.28-.09,.51-.13,.73q-.11,.63-.76,.52c-.63-.11-1.26-.2-1.89-.32-.27-.05-.39,0-.43,.3-.08,.6-.2,1.2-.31,1.84-.55-.09-1.07-.18-1.62-.27,.1-.64,.18-1.24,.28-1.84,.21-1.26,.44-2.51,.63-3.77,.06-.42,.19-.48,.6-.4,1.33,.25,2.67,.46,4.02,.66,.24,.04,.34,.11,.28,.36-.05,.21-.07,.43-.1,.64-.06,.45-.12,.49-.58,.41-.89-.16-1.78-.3-2.68-.46-.04,.1-.08,.14-.08,.19-.19,1.16-.21,.87,.76,1.05,.65,.12,1.31,.22,2.01,.34Z"/>
      <path class="cls-1" d="M67.86,15.7c-.33,.37-.63,.7-.96,1.07-.46-.41-.91-.8-1.4-1.23-1.05,1.16-2.1,2.31-3.17,3.49-.42-.37-.81-.72-1.24-1.11,1.06-1.18,2.1-2.33,3.16-3.51-.48-.44-.92-.84-1.37-1.26,.32-.36,.63-.7,.97-1.08,1.34,1.21,2.66,2.4,4.02,3.62Z"/>
      <path class="cls-1" d="M48.54,70.52c.04,.23,.08,.44,.1,.66q.09,.77-.67,.91c-.33,.06-.8,.02-.95,.22-.15,.19,.02,.64,.07,.97,.18,1.19,.36,2.38,.56,3.63-.55,.09-1.07,.17-1.64,.26-.2-1.28-.37-2.53-.59-3.77-.19-1.05,.11-.91-1.04-.77-1.14,.14-.89,.36-1.08-.76-.03-.16-.05-.32-.08-.52,1.77-.28,3.52-.55,5.34-.83Z"/>
      <path class="cls-1" d="M72.35,59.13c-.44-.6-.82-1.09-1.18-1.6-.15-.2-.27-.27-.54-.17-.59,.23-1.2,.4-1.92,.63,.42-.6,.77-1.11,1.15-1.6,.18-.24,.18-.4,0-.64-.39-.49-.75-.99-1.07-1.56,.56,.18,1.13,.34,1.69,.54,.34,.13,.55,.06,.74-.24,.32-.5,.69-.98,1.12-1.45,0,.6,.03,1.2,0,1.8-.02,.37,.12,.53,.46,.62,.56,.15,1.11,.34,1.66,.62-.53,.18-1.06,.38-1.6,.52-.39,.11-.55,.29-.52,.71,.04,.56,.01,1.13,.01,1.82Z"/>
      <path class="cls-1" d="M13.68,54.3c-.34,.47-.68,.94-1.04,1.39-.2,.25-.26,.45-.02,.74,.38,.46,.7,.96,1,1.53-.45-.15-.9-.29-1.35-.44q-.78-.26-1.27,.39c-.28,.38-.56,.75-.91,1.1,0-.55-.04-1.11,.01-1.65,.04-.46-.14-.65-.55-.76-.53-.14-1.04-.34-1.56-.61,.6-.19,1.2-.4,1.81-.57,.25-.07,.32-.19,.31-.43-.01-.64,0-1.28,.08-1.96,.28,.4,.57,.79,.85,1.19q.47,.65,1.23,.42c.45-.14,.89-.28,1.34-.41,.02,.03,.04,.06,.06,.09Z"/>
      <path class="cls-1" d="M70.33,31.66c1.99-.6,3.92-1.18,5.91-1.77,.16,.53,.31,1.04,.48,1.6-.79,.24-1.56,.48-2.32,.71-1.08,.32-2.16,.64-3.24,.97-.27,.09-.4,.03-.47-.25-.1-.41-.23-.8-.37-1.25Z"/>
      <path class="cls-1" d="M49.05,70.28c.49-.15,.93-.3,1.39-.41,.08-.02,.27,.15,.3,.26,.43,1.39,.84,2.78,1.25,4.17,.14,.45,.27,.9,.42,1.41-.53,.16-1.03,.31-1.6,.48-.59-1.96-1.17-3.92-1.77-5.91Z"/>
      <path class="cls-1" d="M54.65,35.82c-.01-.17-.03-.29-.03-.41,0-1.82,0-3.65,0-5.47,0-.36,.1-.48,.46-.45,.58,.05,1.17,0,1.74,.08,.71,.11,1.19,.62,1.22,1.33,.04,1.14,.05,2.28,0,3.43-.03,.78-.68,1.43-1.44,1.48-.63,.05-1.27,0-1.96,0Z"/>
      <path class="cls-1" d="M33.82,48.86c.35,0,.65-.03,.94,0,.35,.04,.52,.3,.54,.62,.02,.46,.04,.93,0,1.38-.04,.56-.85,.96-1.36,.69-.06-.03-.11-.15-.11-.23,0-.8,0-1.6,0-2.47Z"/>
      <path class="cls-1" d="M58.41,48.85c.27,0,.56-.04,.83,0,.37,.06,.57,.33,.57,.69,.01,1.52,.02,3.04,0,4.56,0,.59-.87,1.02-1.36,.71-.06-.04-.11-.16-.11-.24,0-1.86,0-3.72,0-5.58,0-.04,.03-.07,.06-.15Z"/>
    </g>
  </g>
</svg>