<?xml version="1.0" encoding="UTF-8"?>
<svg id="Capa_2" data-name="Capa 2" xmlns="http://www.w3.org/2000/svg" viewBox="0 0 69.52 49.69">
  <defs>
    <style>
      .cls-1 {
        fill: #02382e;
      }
    </style>
  </defs>
  <g id="Capa_1-2" data-name="Capa 1">
    <g>
      <path class="cls-1" d="M69.52,.17V7.61c-5.56-.62-10.45,.84-14.5,4.72-2.61,2.49-4.45,5.88-4.91,8.77h14.42v7.48h-14.46c1.06,4.47,3.41,8,7.12,10.57,3.71,2.57,7.84,3.48,12.33,2.92v7.48c-3.42,.36-6.77,0-10.02-1.05-4.97-1.6-9.07-4.49-12.22-8.66-6.32-8.37-6.76-19.66-1.13-28.4C52.1,2.2,62.09-.74,69.52,.17Z"/>
      <path class="cls-1" d="M27.43,7.62c-5.93-.69-11.06,.96-15.2,5.27-3.08,3.2-4.67,7.07-4.76,11.51-.11,5.38,1.86,9.92,5.89,13.48,4.02,3.56,8.78,4.83,14.09,4.18,.02,.15,.04,.26,.04,.37,0,2.23,0,4.46,0,6.69,0,.33-.11,.43-.44,.46C14.07,50.74,2.42,41.7,.33,28.86-1.85,15.5,7.01,2.9,20.32,.42,22.54,0,24.78-.1,27.03,.1c.25,.02,.47,.02,.46,.39-.01,2.31,0,4.62-.01,6.93,0,.05-.02,.09-.05,.2Z"/>
    </g>
  </g>
</svg>