<?xml version="1.0" encoding="UTF-8"?>
<svg id="Capa_2" data-name="Capa 2" xmlns="http://www.w3.org/2000/svg" viewBox="0 0 99.43 59.02">
  <defs>
    <style>
      .cls-1 {
        fill: #02382e;
      }
    </style>
  </defs>
  <g id="Capa_1-2" data-name="Capa 1">
    <g>
      <g>
        <path class="cls-1" d="M25.47,16.36h4.69v19.15h.5c3.21,0,6.42-.03,9.63,0,3.52,.04,6.67-1.08,9.5-3.09,3.82-2.71,5.88-6.44,6.24-11.1,.3-3.8-.47-7.31-2.83-10.38-2.24-2.9-5.22-4.69-8.7-5.73-1.16-.35-2.34-.51-3.56-.5-11.93,0-23.86,0-35.79,0h-.59V40.35H0V0H.42c13.19,0,26.38,0,39.57,0,3.57,0,7.01,.6,10.22,2.23,4.06,2.07,6.92,5.28,8.78,9.39,.56,1.24,.91,2.58,1.36,3.87,.02,.06,.04,.12,.09,.25,.12-.18,.21-.32,.29-.46,3.11-4.98,6.23-9.96,9.33-14.94,.16-.26,.32-.35,.62-.34,1.43,.02,2.86,0,4.28,0,.13,0,.26,0,.43,0-.06,.13-.09,.23-.14,.32-5.29,9.08-10.58,18.16-15.88,27.24-1.6,2.73-3.45,5.28-5.78,7.44-2.84,2.63-6.1,4.45-9.95,5.08-1.11,.18-2.24,.27-3.36,.28-4.82,.03-9.64,.01-14.46,.01-.1,0-.21,0-.34,0V16.36Z"/>
        <path class="cls-1" d="M31.99,33.63V16.38h4.85v12.54h.44c1.15,0,2.31-.04,3.46,0,2.36,.1,4.31-.81,5.99-2.38,3.24-3.02,3.89-7.63,1.5-11.16-1.83-2.7-4.45-4.18-7.72-4.19-9.77-.05-19.54-.02-29.31-.02h-.36v5.17h12.85v4.85H6.13V6.45h.44c11.26,0,22.53,0,33.79,0,3.74,0,7.06,1.13,9.82,3.69,2.52,2.33,3.87,5.25,4.19,8.66,.31,3.3-.38,6.36-2.32,9.07-2.4,3.36-5.66,5.32-9.8,5.74-.29,.03-.58,.03-.86,.03-3,0-6,0-9,0-.12,0-.23,0-.4,0Z"/>
        <path class="cls-1" d="M93.17,33.6h-24.49v-4.67h15.87c-3.06-4.98-6.07-9.89-9.12-14.85-.11,.17-.18,.29-.25,.41-4.85,8.5-9.7,17-14.54,25.51-.17,.29-.34,.39-.67,.38-1.89-.02-3.77,0-5.66,0h-.5c7.21-11.91,14.39-23.75,21.61-35.66,5.93,9.65,11.83,19.25,17.75,28.89Z"/>
        <path class="cls-1" d="M96.45,35.48c-.05-.13-.09-.26-.16-.38-6.86-11.55-13.73-23.1-20.59-34.65-.07-.12-.14-.25-.23-.41,.15-.01,.26-.03,.37-.03,1.48,0,2.96,0,4.44,0,.26,0,.4,.08,.53,.3,6.17,10,12.34,20,18.52,30,.14,.23,.16,.39,0,.63-.87,1.4-1.71,2.81-2.57,4.22-.08,.12-.2,.22-.31,.33h0Z"/>
        <path class="cls-1" d="M23.69,27.96H10.83v12.39H6.14V23.29H23.69v4.67Z"/>
        <path class="cls-1" d="M96.44,35.47c-.03,.12-.04,.25-.1,.35-.86,1.43-1.73,2.87-2.61,4.29-.08,.13-.27,.26-.41,.26-8.15,.01-16.31,.01-24.46,0-.05,0-.1-.01-.17-.02v-4.85h.52c8.93,0,17.85,0,26.78,0,.16,0,.31-.02,.47-.03,0,0,0,0,0,0Z"/>
      </g>
      <g>
        <path class="cls-1" d="M17.48,49.6h2.45l3.46,9.25h-2.71l-.53-1.6h-3.03l-.53,1.6h-2.58l3.46-9.25Zm2.02,5.64l-.86-2.86-.86,2.86h1.71Z"/>
        <path class="cls-1" d="M24.05,49.6h3.79c2.41,0,3.66,1.07,3.66,3.15s-1.25,3.15-3.66,3.15h-1.3v2.94h-2.48v-9.25Zm3.65,4.21c.91,0,1.28-.32,1.28-1.05s-.36-1.05-1.28-1.05h-1.16v2.1h1.16Z"/>
        <path class="cls-1" d="M32.52,49.6h3.79c2.41,0,3.66,1.07,3.66,3.15s-1.25,3.15-3.66,3.15h-1.3v2.94h-2.48v-9.25Zm3.65,4.21c.91,0,1.28-.32,1.28-1.05s-.36-1.05-1.28-1.05h-1.16v2.1h1.16Z"/>
        <path class="cls-1" d="M40.98,49.6h3.97c2.36,0,3.55,1.04,3.55,3.04,0,1.36-.55,2.27-1.64,2.72l2.26,3.49h-2.96l-1.89-3.17h-.8v3.17h-2.48v-9.25Zm3.8,4.09c.83,0,1.19-.31,1.19-1s-.36-1-1.19-1h-1.32v1.99h1.32Z"/>
        <path class="cls-1" d="M49.35,54.22c0-2.8,2.03-4.8,4.91-4.8s4.91,1.99,4.91,4.8-2.03,4.8-4.91,4.8-4.91-1.99-4.91-4.8Zm7.24,0c0-1.51-.91-2.5-2.33-2.5s-2.33,.98-2.33,2.5,.91,2.5,2.33,2.5,2.33-.98,2.33-2.5Z"/>
        <path class="cls-1" d="M58.99,49.6h2.65l1.82,5.65,1.81-5.65h2.52l-3.27,9.25h-2.27l-3.27-9.25Z"/>
        <path class="cls-1" d="M68.45,49.6h7.07v2.2h-4.58v1.33h3.91v2.06h-3.91v1.46h4.74v2.2h-7.22v-9.25Z"/>
        <path class="cls-1" d="M77.14,49.6h3.29c3.23,0,4.98,1.65,4.98,4.63s-1.75,4.63-4.98,4.63h-3.29v-9.25Zm3.22,7.05c1.71,0,2.47-.8,2.47-2.43s-.76-2.43-2.47-2.43h-.74v4.85h.74Z"/>
      </g>
    </g>
  </g>
</svg>