<?xml version="1.0" encoding="UTF-8"?>
<svg id="Capa_2" data-name="Capa 2" xmlns="http://www.w3.org/2000/svg" viewBox="0 0 74.67 74.7">
  <defs>
    <style>
      .cls-1 {
        fill: #02382e;
      }
    </style>
  </defs>
  <g id="Capa_1-2" data-name="Capa 1">
    <g>
      <path class="cls-1" d="M45.44,30.75c0-2.08,.21-4.15,.86-6.14,1.16-3.56,3.65-5.82,7.12-7,5.23-1.77,10.37-1.53,15.31,1.03,2.57,1.33,4.34,3.4,5.14,6.22,1.06,3.71,1.1,7.42-.06,11.13-1.28,4.09-4.2,6.41-8.18,7.53-3.63,1.01-7.28,1.1-10.92,.01-2.37-.71-4.55-1.8-6.25-3.65-2.04-2.23-2.83-4.97-3.02-7.92-.02-.4,0-.81,0-1.21Zm19.04-.21c-.07-1.53-.1-2.86-.21-4.18-.11-1.43-.86-2.39-2.25-2.82-1.32-.4-2.65-.4-3.97,.03-1.13,.37-1.84,1.09-2.09,2.3-.6,2.87-.47,5.74-.08,8.6,.19,1.4,.95,2.48,2.41,2.75,.97,.18,1.99,.3,2.96,.18,1.86-.23,2.86-1.35,3.02-3.16,.11-1.3,.15-2.61,.21-3.71Z"/>
      <path class="cls-1" d="M37.94,18.79c.02-.41,.04-.73,.05-1.05,0-.28,.04-.5,.4-.5,1.69,0,3.38,0,5.07,0,.07,0,.15,.03,.32,.06,0,.45,0,.9,0,1.36,.02,2.4,.03,4.8,.07,7.21,0,.45-.13,.61-.59,.6-1.58-.02-3.15,.01-4.73,0-.18,0-.42-.11-.52-.25-1.42-1.96-3.46-2.88-5.74-3.33-1.03-.2-2.09-.28-3.15-.31-.47-.01-.99,.16-1.41,.4-.72,.4-.7,1.13,.02,1.54,.45,.25,.94,.43,1.44,.57,3,.87,6.03,1.68,9.02,2.61,2.85,.88,4.98,2.69,6.08,5.49,1.41,3.6-.18,8.32-4.5,10.02-4.54,1.78-9,1.32-13.35-.72-.4-.19-.78-.39-1.28-.64-.02,.36-.04,.63-.06,.91-.02,.28-.03,.57-.05,.88-.16,.02-.27,.04-.38,.04-1.65,.01-3.31,0-4.96,.04-.45,0-.65-.1-.65-.6,.02-2.87,.02-5.73,0-8.6,0-.52,.17-.68,.7-.67,1.4,.02,2.81-.04,4.21-.02,.25,0,.61,.17,.74,.38,1.33,2.07,3.33,3.07,5.63,3.58,1.67,.37,3.36,.3,5.03-.12,.11-.03,.25-.04,.32-.11,.21-.2,.55-.42,.55-.64,0-.26-.23-.64-.47-.75-.67-.31-1.39-.54-2.11-.76-2.81-.87-5.62-1.7-8.42-2.59-1.81-.57-3.4-1.54-4.66-2.97-3.25-3.68-1.94-9.75,2.58-11.98,2.42-1.19,5-1.47,7.64-1.25,2.4,.2,4.69,.79,6.78,2.04,.08,.05,.17,.07,.39,.15Z"/>
      <path class="cls-1" d="M.16,16.78c1.24,0,2.49,0,3.74,0,4.29,0,8.58,.03,12.87,.02,.49,0,.68,.11,.68,.63-.01,1.86,0,3.73,.02,5.59,0,.38-.18,.44-.5,.44-1,0-2,.02-3,.02-.37,0-.5,.13-.5,.51,0,4.23-.01,8.46-.04,12.7,0,.42,.16,.53,.54,.53,.98,0,1.96,.05,2.94,.04,.43,0,.56,.15,.56,.57-.02,1.77-.02,3.54,0,5.31,0,.42-.11,.57-.55,.57-5.46-.01-10.93-.01-16.39,0-.41,0-.52-.15-.52-.54,.01-1.81,.02-3.61,0-5.42,0-.39,.16-.49,.51-.49,.9,0,1.81-.07,2.71-.02,.61,.03,.74-.22,.74-.76-.02-2.6,0-5.19,0-7.79,0-1.54-.01-3.08,0-4.62,0-.43-.14-.58-.56-.58-.96,0-1.92-.03-2.88-.04-.27,0-.49-.02-.49-.39,.01-2.02,.01-4.04,.02-6.06,0-.03,.03-.07,.1-.2Z"/>
      <path class="cls-1" d="M62.35,13.69c-.72,.36-1.27,.24-1.66-.29-1.51-2.08-3.28-3.91-5.27-5.54-.47-.38-.83-.49-1.37-.13-.6,.41-1.26,.73-1.9,1.09-.18,.1-.33,.23-.47,.33,1.17,1.54,2.31,3.03,3.46,4.54-.81,.4-1.19,.29-1.64-.28-.9-1.15-1.81-2.29-2.75-3.41-.11-.13-.41-.24-.56-.19-1.6,.54-3.19,1.12-4.78,1.69-.05,.02-.09,.07-.19,.14,.3,.7,.61,1.42,.91,2.13-.74,.35-1.04,.25-1.4-.38-.27-.48-.45-1.17-.86-1.38-.41-.2-1.06,.11-1.61,.17-1.62,.19-3.24,.4-4.87,.54-.46,.04-.61,.17-.59,.61,0,.18-.09,.5-.18,.52-.29,.06-.6,.02-.9-.04-.06-.01-.1-.31-.09-.47,.02-.46-.15-.61-.63-.66-2.01-.2-4.01-.43-6.01-.71-.49-.07-.81-.03-.98,.48-.09,.27-.24,.52-.37,.78-.36,.77-.5,.83-1.48,.62,.24-.57,.44-1.14,.71-1.67,.23-.46,.16-.65-.35-.82-1.39-.44-2.77-.92-4.14-1.42-.36-.13-.6-.12-.85,.19-.84,1.07-1.72,2.12-2.55,3.2-.5,.65-.63,.73-1.65,.51,.55-.81,1.06-1.58,1.61-2.32,.55-.75,1.15-1.48,1.78-2.29-1.03-.59-2-1.16-3-1.67-.14-.07-.48,.11-.64,.27-1.38,1.31-2.75,2.62-4.09,3.97-.47,.47-.85,1.04-1.26,1.58-.48,.62-.7,.69-1.66,.41C15.84,5.64,23.57,.93,33.43,.13c12.13-.98,21.69,3.81,28.92,13.56Zm-33.47-2.92c2.21,.47,4.27,.78,6.37,.74,.12,0,.33-.27,.34-.41,.02-1.86,.01-3.72,.01-5.58,0-.33-.15-.48-.48-.51-.55-.06-1.1-.19-1.65-.22-.22-.01-.52,.12-.67,.29-.46,.52-.89,1.06-1.28,1.63-.87,1.3-1.71,2.63-2.64,4.06Zm14.41-.03c-.12-.25-.21-.49-.34-.69-1.03-1.53-2.08-3.04-3.1-4.57-.35-.52-.72-.85-1.41-.61-.35,.12-.76,.13-1.14,.16-.3,.03-.45,.14-.45,.46,0,1.88-.01,3.77,0,5.65,0,.13,.27,.39,.4,.38,2.02-.05,4.02-.26,6.03-.78Zm-2.64-6.39c.02,.08,.02,.13,.04,.16,1.26,1.88,2.51,3.77,3.79,5.64,.09,.13,.4,.22,.56,.18,.92-.26,1.84-.55,2.74-.86,.55-.19,1.09-.43,1.66-.67-.09-.14-.12-.21-.17-.26-1.96-1.95-4.17-3.56-6.63-4.83-.13-.07-.35-.08-.48-.02-.51,.2-1.01,.44-1.5,.66Zm-17.7,4.41c0,.08,.02,.15,.02,.23,1.36,.45,2.73,.88,4.08,1.34,.49,.17,.73,.04,1.01-.4,1.11-1.75,2.28-3.46,3.42-5.19,.08-.12,.14-.25,.22-.41-.29-.13-.54-.22-.78-.35-.66-.36-1.25-.31-1.86,.14-1.67,1.22-3.36,2.42-5.03,3.64-.39,.29-.73,.66-1.09,.99ZM29.6,1.83c2.76,2.68,11.28,2.64,13.05-.03-4.33-1-8.63-.91-13.05,.03Zm-10.78,4.7c-.01,.09-.02,.18-.03,.27,.89,.47,1.78,.95,2.69,1.38,.13,.06,.42-.09,.58-.22,1.64-1.3,3.25-2.62,4.9-3.91,.55-.43,1.16-.78,1.73-1.16-.42-.63-1-.71-1.55-.49-1.77,.73-3.54,1.47-5.26,2.3-1.06,.51-2.04,1.21-3.05,1.82Zm24.91-3.73c.05,.07,.08,.12,.12,.15,2.39,1.44,4.63,3.09,6.64,5.04,.09,.09,.31,.18,.4,.14,.91-.47,1.8-.97,2.72-1.47-.09-.13-.11-.19-.16-.22-2.67-1.86-5.57-3.24-8.71-4.1-.47-.13-.75,.12-1,.47Z"/>
      <path class="cls-1" d="M20.85,51.34c-1.18-1.6-2.29-3.11-3.44-4.66,1-.32,1.16-.24,1.66,.43,.86,1.13,1.75,2.24,2.66,3.33,.12,.14,.44,.26,.61,.2,1.59-.52,3.16-1.09,4.73-1.64,.07-.02,.13-.07,.28-.14-.31-.74-.61-1.47-.92-2.21,.7-.31,1.07-.19,1.39,.43,.76,1.5,.76,1.45,2.43,1.2,1.58-.24,3.17-.37,4.75-.53,.76-.07,.76-.05,.77-.83,0-.09,.01-.19,.02-.36,.2-.01,.41-.01,.61-.04,.4-.05,.59,.14,.54,.53-.07,.55,.21,.64,.69,.69,2.04,.22,4.08,.49,6.12,.78,.36,.05,.53-.02,.66-.33,.14-.32,.32-.61,.48-.92q.41-.79,1.51-.68c-.21,.49-.4,.96-.61,1.41-.44,.96-.41,.86,.49,1.15,1.26,.4,2.51,.85,3.74,1.34,.52,.21,.85,.15,1.18-.28,.75-.99,1.59-1.93,2.27-2.98,.46-.71,.99-.77,1.86-.61-1.17,1.58-2.27,3.09-3.43,4.66,.68,.39,1.35,.77,2.03,1.16,1.18,.67,1.18,.66,2.21-.23,1.72-1.47,3.25-3.12,4.55-4.96,.47-.67,.98-.83,1.8-.62-1.94,2.96-4.29,5.49-7.07,7.61-5.19,3.95-11.06,6.02-17.57,6.33-13.82,.64-23.84-7.62-27.53-13.93,.92-.22,1.08-.16,1.59,.53,1.54,2.11,3.34,3.97,5.36,5.62,.32,.26,.57,.31,.93,.1,.87-.52,1.76-1.01,2.65-1.52Zm22.81-1.55c-.2-.09-.26-.13-.34-.14-1.99-.24-3.99-.48-5.99-.69-.1-.01-.33,.25-.33,.39-.02,1.9-.01,3.8,.01,5.7,0,.15,.15,.4,.26,.42,.7,.13,1.4,.23,2.1,.28,.16,.01,.38-.16,.5-.31,.6-.79,1.21-1.59,1.76-2.42,.69-1.03,1.32-2.11,2.02-3.22Zm-14.37-.14c.03,.16,.01,.25,.05,.3,1.24,1.87,2.49,3.73,3.75,5.59,.08,.11,.29,.21,.43,.2,.63-.06,1.26-.13,1.88-.25,.15-.03,.36-.25,.36-.38,.02-1.9,0-3.8,0-5.71,0-.43-.18-.52-.56-.48-1.56,.17-3.13,.32-4.69,.49-.41,.05-.81,.15-1.23,.24Zm2.58,6.56c-1.3-2.06-2.53-4.02-3.79-5.97-.07-.12-.36-.18-.52-.14-.7,.18-1.41,.38-2.09,.63-.8,.28-1.58,.62-2.39,.94,.08,.15,.1,.21,.14,.25,1.97,2,4.22,3.62,6.72,4.9,.11,.06,.27,.11,.37,.07,.53-.21,1.04-.45,1.56-.67Zm9.02-.04c.49,.22,.86,.44,1.26,.55,.26,.07,.61,.08,.84-.04,1.95-1.01,3.75-2.26,5.38-3.73,.43-.39,.83-.82,1.24-1.23,0-.08-.02-.16-.03-.24-1.42-.45-2.83-.9-4.24-1.37-.4-.14-.57,0-.77,.33-1,1.61-2.03,3.21-3.06,4.81-.18,.29-.38,.56-.63,.91Zm2.15,2.54c-3.21-2.72-9.99-2.7-13.27,0,4.45,1.03,8.81,.98,13.27,0Zm.85-1.06c.38,.33,.62,.69,1.14,.53,2.96-.9,5.77-2.1,8.3-3.91,.16-.12,.32-.25,.6-.48-.95-.51-1.79-.95-2.62-1.41-.31-.17-.5-.07-.75,.15-1.47,1.23-2.94,2.47-4.45,3.65-.67,.53-1.43,.95-2.22,1.47Zm-24.95-3.84c.09,.17,.1,.21,.13,.23,2.67,1.89,5.58,3.29,8.75,4.15,.49,.13,.72-.16,.97-.5-.06-.07-.1-.12-.14-.15-2.36-1.5-4.6-3.14-6.62-5.08-.1-.09-.34-.15-.45-.1-.88,.46-1.74,.95-2.63,1.44Z"/>
      <path class="cls-1" d="M48,70.09c.24-.84,.39-1.74,.75-2.55,.55-1.24,1.57-1.9,2.97-1.89,1.38,.01,2.34,.69,2.92,1.89,.84,1.75,.83,3.54-.02,5.28-.6,1.23-1.63,1.86-3.02,1.83-1.45-.03-2.44-.8-2.96-2.1-.31-.75-.41-1.58-.63-2.47Zm5.21,.02c-.2-.66-.3-1.34-.6-1.92-.42-.85-1.43-.84-1.86,0-.65,1.27-.65,2.6,0,3.87,.15,.3,.61,.64,.92,.63,.34,0,.81-.33,.96-.64,.29-.58,.39-1.26,.58-1.93Z"/>
      <path class="cls-1" d="M23.41,69.94c-1.02-.68-1.45-1.52-1.08-2.66,.36-1.11,1.6-1.74,3.13-1.61,1.33,.12,2.26,.9,2.42,2.07,.1,.72-.15,1.32-.68,1.81-.14,.13-.29,.24-.41,.34,.36,.32,.76,.58,1.03,.93,.77,1.03,.49,2.42-.6,3.18-1.17,.82-3,.86-4.21,.08-1.57-1.01-1.53-3.02,.07-3.97,.08-.05,.16-.09,.33-.19Zm2.63,1.89c-.01-.59-.47-1.03-1.03-1.01-.52,.02-.97,.49-.97,1.03,0,.56,.47,1.05,1.01,1.04,.57-.01,1-.48,.99-1.06Zm-.99-4.66c-.52,0-.91,.39-.92,.91,0,.54,.41,.96,.94,.95,.5-.01,.9-.43,.89-.94,0-.52-.4-.91-.92-.91Z"/>
      <path class="cls-1" d="M68.94,65.97c-.8,.97-1.49,1.8-2.19,2.64,.58,0,1.1-.07,1.58,.02,1.13,.21,1.91,1.14,2.09,2.39,.19,1.32-.35,2.5-1.49,3.12-1.26,.69-2.59,.71-3.89,.14-1.25-.55-1.98-2.02-1.6-3.36,.23-.82,.63-1.61,1.07-2.33,.5-.81,1.14-1.54,1.73-2.3,.1-.13,.25-.29,.39-.3,.7-.03,1.4-.01,2.28-.01Zm-.74,5.64c.02-.78-.53-1.39-1.28-1.4-.77-.01-1.37,.55-1.4,1.3-.03,.74,.57,1.38,1.29,1.41,.75,.03,1.36-.55,1.38-1.31Z"/>
      <path class="cls-1" d="M19.92,72.65c0,.41-.01,.8,0,1.18,.02,.34-.1,.5-.46,.48-.38-.02-.77-.02-1.15,0-.37,.02-.45-.15-.45-.48-.03-1.23-.04-1.23-1.31-1.23-.73,0-1.46-.02-2.19,0-.41,.01-.53-.15-.54-.54-.01-.55,.09-1.04,.4-1.52,.87-1.36,1.71-2.74,2.54-4.12,.2-.33,.42-.49,.83-.47,.59,.04,1.19,.03,1.79,0,.44-.02,.56,.16,.55,.57-.02,1.27,0,2.54-.01,3.81,0,.42,.06,.68,.56,.6,.36-.05,.48,.15,.45,.48,0,.04,0,.08,0,.12q.02,.99-1,1.12Zm-2.06-4.65c-.06-.02-.11-.03-.17-.05-.57,.96-1.14,1.91-1.78,2.97,.64,0,1.12,.02,1.6-.01,.12,0,.32-.18,.33-.28,.03-.88,.02-1.75,.02-2.63Z"/>
      <path class="cls-1" d="M44.91,72.47h2.48v1.8h-6.6c.74-.8,1.39-1.52,2.05-2.23,.49-.54,1.04-1.04,1.47-1.63,.33-.45,.59-.99,.76-1.52,.2-.65-.22-1.29-.79-1.39-.55-.09-.93,.29-1.02,1.04,0,.07-.03,.15-.05,.26h-2.27c-.08-1.35,.78-2.62,2.02-2.98,.94-.27,1.87-.26,2.76,.17,1.68,.8,2.21,3,1.03,4.45-.56,.68-1.25,1.25-1.88,1.86,.01,.05,.03,.11,.04,.16Z"/>
      <path class="cls-1" d="M11.96,69.79c.74,.45,1.16,1.07,1.21,1.92,.07,1.14-.42,1.97-1.4,2.51-1.96,1.09-4.41,.23-5.13-1.78-.08-.23-.11-.47-.19-.83,.72,0,1.37-.01,2.01,.01,.1,0,.23,.18,.28,.3,.33,.75,.78,1.01,1.48,.84,.51-.13,.87-.64,.82-1.18-.06-.62-.51-.98-1.3-1.04-.05,0-.11-.03-.2-.05v-1.25c.91-.28,1.15-.51,1.11-1.07-.03-.44-.27-.71-.7-.79-.49-.1-.8,.17-1.13,.98-.48,0-.98-.01-1.47,0-.35,.01-.48-.16-.36-.46,.18-.44,.34-.91,.64-1.27,.87-1.06,2.79-1.32,3.96-.61,1.22,.74,1.48,2.4,.55,3.49-.06,.07-.11,.15-.19,.25Z"/>
      <path class="cls-1" d="M29.85,72.09c.76,.25,1.43,.56,2.13,.67,.85,.14,1.43-.34,1.52-1.04,.1-.74-.4-1.41-1.24-1.52-.52-.06-1.06,.03-1.59,.07-.14,0-.29,.06-.53,.12,.24-1.51,.47-2.94,.7-4.41h4.31v1.79h-2.81c-.06,.32-.11,.59-.17,.92,.29,0,.52,0,.75,0,1.43-.02,2.45,.8,2.8,2.25,.32,1.35-.27,2.77-1.48,3.31-1.45,.64-2.92,.53-4.34-.18-.13-.07-.28-.3-.27-.44,.05-.55,.16-1.09,.24-1.55Z"/>
      <path class="cls-1" d="M60.67,74.27h-2.14v-6.45h-1.15v-1.85c1.01,0,2.01-.01,3,.02,.1,0,.27,.32,.28,.49,.02,1.79,.01,3.58,.01,5.36,0,.8,0,1.6,0,2.43Z"/>
      <path class="cls-1" d="M1.47,67.79H.27c0-.54-.02-1.03,.02-1.52,0-.11,.23-.29,.36-.3,.84-.03,1.69,0,2.53-.02,.43,0,.44,.25,.44,.56,0,1.92,0,3.84,0,5.76,0,.52-.01,1.04,0,1.56,.01,.34-.11,.46-.46,.48-1.7,.07-1.7,.08-1.7-1.6,0-1.4,0-2.8,0-4.21,0-.21,0-.42,0-.71Z"/>
      <path class="cls-1" d="M37.11,73.22c0-.71,.57-1.27,1.28-1.27,.72,0,1.31,.6,1.3,1.32-.01,.68-.62,1.29-1.29,1.29-.71,0-1.3-.61-1.29-1.33Z"/>
      <path class="cls-1" d="M39.7,69.52c0,.72-.61,1.31-1.33,1.29-.71-.02-1.26-.59-1.25-1.31,0-.77,.55-1.29,1.32-1.28,.72,.01,1.27,.58,1.26,1.29Z"/>
    </g>
  </g>
</svg>