<?xml version="1.0" encoding="UTF-8"?>
<svg id="Capa_2" data-name="Capa 2" xmlns="http://www.w3.org/2000/svg" viewBox="0 0 49.22 71.79">
  <defs>
    <style>
      .cls-1 {
        fill: #02382e;
      }

      .cls-2 {
        fill: #356058;
      }
    </style>
  </defs>
  <g id="Capa_1-2" data-name="Capa 1">
    <g>
      <g>
        <path class="cls-1" d="M6.42,65.87l4.46-4.99h2.16l-4.77,5.32,4.76,5.4h-2.22l-4.38-4.99v4.99h-1.8v-10.73h1.8v4.99Z"/>
        <path class="cls-1" d="M23.27,66.25c0,1.54-.51,2.82-1.53,3.83-1.02,1.01-2.35,1.52-3.98,1.52h-3.56v-10.73h3.56c1.64,0,2.97,.51,3.98,1.52,1.02,1.01,1.53,2.3,1.53,3.85Zm-1.79,0c0-1.2-.36-2.14-1.07-2.84-.71-.69-1.69-1.04-2.91-1.04h-1.5v7.73h1.5c1.23,0,2.2-.35,2.91-1.04,.71-.69,1.07-1.63,1.07-2.82Z"/>
        <path class="cls-1" d="M30.38,70.28c1.12,0,2.15-.36,3.07-1.09l.74,1.31c-.96,.86-2.23,1.29-3.81,1.29s-2.85-.53-3.92-1.6c-1.07-1.07-1.61-2.38-1.61-3.94s.54-2.89,1.61-3.96c1.07-1.07,2.38-1.6,3.92-1.6s2.81,.43,3.75,1.29l-.72,1.31c-.91-.72-1.92-1.09-3.02-1.09-1.02,0-1.9,.38-2.63,1.13-.74,.8-1.1,1.77-1.1,2.91s.37,2.11,1.1,2.9c.73,.76,1.61,1.13,2.63,1.13Z"/>
        <path class="cls-1" d="M40.85,60.88l3.75,10.73h-1.83l-1.09-3.15h-4.11l-1.09,3.15h-1.84l3.75-10.73h2.46Zm-2.77,6.08h3.1l-1.54-4.5-1.56,4.5Z"/>
      </g>
      <g>
        <path class="cls-1" d="M36.88,22.8c-4.15-2.82-9.46-1.67-12.25,2.57-2.33,3.54-5.84,3.98-7.21,3.98-4.44,0-7.48-3.12-8.37-6.35h0s-.01-.05-.02-.09c0-.04-.02-.07-.03-.11-.35-1.35-.44-1.99-.44-3.43,0-7.72,7.93-16.32,19.34-16.32s18.38,8.9,20.1,13.84c-.03-.09-.06-.17-.09-.26C44.58,6.96,35.41,0,24.61,0,11.02,0,0,11.02,0,24.62c0,12.15,8.76,22.55,20.92,22.55,9.69,0,16.21-5.44,19.2-12.93,1.64-4.1,.48-8.91-3.24-11.44Z"/>
        <path class="cls-2" d="M48.14,17.37c-1.44-4.82-8.18-14.32-20.25-14.32-11.42,0-19.34,8.6-19.34,16.32,0,1.43,.09,2.08,.44,3.43-.15-.59-.23-1.18-.23-1.76,0-8.04,8.06-13.62,16.34-13.62,11.21,0,20.29,9.09,20.29,20.29,0,8.79-5.06,16.39-12.4,20.05h0c9.48-3.42,16.23-12.49,16.23-23.14,0-2.52-.34-4.75-1.08-7.24Z"/>
      </g>
    </g>
  </g>
</svg>